solid CATIA STL
  facet normal  0.000000e+000  0.000000e+000 -1.000000e+000
    outer loop
      vertex -8.443520e+000 -2.028444e+000  0.000000e+000
      vertex -8.823879e+000 -3.826834e-001  0.000000e+000
      vertex -8.607107e+000 -7.071068e-001  0.000000e+000
    endloop
  endfacet
  facet normal  0.000000e+000  0.000000e+000 -1.000000e+000
    outer loop
      vertex -8.950000e+000 -1.818653e+000  0.000000e+000
      vertex -9.384924e+000 -1.484924e+000  0.000000e+000
      vertex -9.384924e+000  1.484924e+000  0.000000e+000
    endloop
  endfacet
  facet normal  0.000000e+000  0.000000e+000 -1.000000e+000
    outer loop
      vertex -8.950000e+000 -1.818653e+000  0.000000e+000
      vertex -9.384924e+000  1.484924e+000  0.000000e+000
      vertex -8.950000e+000  1.818653e+000  0.000000e+000
    endloop
  endfacet
  facet normal  0.000000e+000  0.000000e+000 -1.000000e+000
    outer loop
      vertex -8.950000e+000 -1.818653e+000  0.000000e+000
      vertex -8.950000e+000  1.818653e+000  0.000000e+000
      vertex -8.900000e+000  3.061516e-016  0.000000e+000
    endloop
  endfacet
  facet normal  0.000000e+000  -0.000000e+000 -1.000000e+000
    outer loop
      vertex -8.950000e+000 -1.818653e+000  0.000000e+000
      vertex -8.900000e+000  3.061516e-016  0.000000e+000
      vertex -8.823879e+000 -3.826834e-001  0.000000e+000
    endloop
  endfacet
  facet normal  0.000000e+000  -0.000000e+000 -1.000000e+000
    outer loop
      vertex -8.950000e+000 -1.818653e+000  0.000000e+000
      vertex -8.823879e+000 -3.826834e-001  0.000000e+000
      vertex -8.443520e+000 -2.028444e+000  0.000000e+000
    endloop
  endfacet
  facet normal  0.000000e+000  0.000000e+000 -1.000000e+000
    outer loop
      vertex  1.000000e+000 -2.100000e+000  0.000000e+000
      vertex -7.900000e+000 -2.100000e+000  0.000000e+000
      vertex -7.900000e+000 -1.000000e+000  0.000000e+000
    endloop
  endfacet
  facet normal  0.000000e+000  0.000000e+000 -1.000000e+000
    outer loop
      vertex  1.000000e+000 -2.100000e+000  0.000000e+000
      vertex -7.900000e+000 -1.000000e+000  0.000000e+000
      vertex -4.932051e+000 -1.000000e+000  0.000000e+000
    endloop
  endfacet
  facet normal  0.000000e+000  0.000000e+000 -1.000000e+000
    outer loop
      vertex  1.000000e+000 -2.100000e+000  0.000000e+000
      vertex -4.932051e+000 -1.000000e+000  0.000000e+000
      vertex -4.066025e+000 -5.000000e-001  0.000000e+000
    endloop
  endfacet
  facet normal  0.000000e+000  0.000000e+000 -9.999999e-001
    outer loop
      vertex  1.000000e+000 -2.100000e+000  0.000000e+000
      vertex -4.066025e+000 -5.000000e-001  0.000000e+000
      vertex  5.000000e-001 -5.000000e-001  0.000000e+000
    endloop
  endfacet
  facet normal  0.000000e+000  0.000000e+000 -1.000000e+000
    outer loop
      vertex  1.000000e+000 -2.100000e+000  0.000000e+000
      vertex  5.000000e-001 -5.000000e-001  0.000000e+000
      vertex  1.000000e+000 -1.000000e+000  0.000000e+000
    endloop
  endfacet
  facet normal  0.000000e+000  0.000000e+000 -1.000000e+000
    outer loop
      vertex -3.200000e+000  0.000000e+000  0.000000e+000
      vertex -4.932051e+000  1.000000e+000  0.000000e+000
      vertex -4.792914e+000  2.100000e+000  0.000000e+000
    endloop
  endfacet
  facet normal  0.000000e+000  0.000000e+000 -1.000000e+000
    outer loop
      vertex -3.200000e+000  0.000000e+000  0.000000e+000
      vertex -4.792914e+000  2.100000e+000  0.000000e+000
      vertex -4.621904e+000  2.130154e+000  0.000000e+000
    endloop
  endfacet
  facet normal  0.000000e+000  0.000000e+000 -1.000000e+000
    outer loop
      vertex -3.200000e+000  0.000000e+000  0.000000e+000
      vertex -4.621904e+000  2.130154e+000  0.000000e+000
      vertex -4.471520e+000  2.216978e+000  0.000000e+000
    endloop
  endfacet
  facet normal  0.000000e+000  0.000000e+000 -1.000000e+000
    outer loop
      vertex -3.200000e+000  0.000000e+000  0.000000e+000
      vertex -4.471520e+000  2.216978e+000  0.000000e+000
      vertex -3.895877e+000  2.700000e+000  0.000000e+000
    endloop
  endfacet
  facet normal  0.000000e+000  0.000000e+000 -1.000000e+000
    outer loop
      vertex -3.200000e+000  0.000000e+000  0.000000e+000
      vertex -3.895877e+000  2.700000e+000  0.000000e+000
      vertex -3.200000e+000  2.200000e+000  0.000000e+000
    endloop
  endfacet
  facet normal  -0.000000e+000  0.000000e+000 -1.000000e+000
    outer loop
      vertex  1.000000e+000  2.700000e+000  0.000000e+000
      vertex  1.000000e+000  5.000000e-001  0.000000e+000
      vertex  5.000000e-001  0.000000e+000  0.000000e+000
    endloop
  endfacet
  facet normal  0.000000e+000  0.000000e+000 -1.000000e+000
    outer loop
      vertex  1.000000e+000  2.700000e+000  0.000000e+000
      vertex  5.000000e-001  0.000000e+000  0.000000e+000
      vertex  0.000000e+000  0.000000e+000  0.000000e+000
    endloop
  endfacet
  facet normal  0.000000e+000  0.000000e+000 -1.000000e+000
    outer loop
      vertex  1.000000e+000  2.700000e+000  0.000000e+000
      vertex  0.000000e+000  0.000000e+000  0.000000e+000
      vertex  0.000000e+000  2.200000e+000  0.000000e+000
    endloop
  endfacet
  facet normal  0.000000e+000  0.000000e+000 -1.000000e+000
    outer loop
      vertex  1.000000e+000  2.700000e+000  0.000000e+000
      vertex  0.000000e+000  2.200000e+000  0.000000e+000
      vertex -3.200000e+000  2.200000e+000  0.000000e+000
    endloop
  endfacet
  facet normal  0.000000e+000  0.000000e+000 -1.000000e+000
    outer loop
      vertex  1.000000e+000  2.700000e+000  0.000000e+000
      vertex -3.200000e+000  2.200000e+000  0.000000e+000
      vertex -3.895877e+000  2.700000e+000  0.000000e+000
    endloop
  endfacet
  facet normal  0.000000e+000  -0.000000e+000 -1.000000e+000
    outer loop
      vertex -1.000000e+001 -3.377100e-016  0.000000e+000
      vertex -9.928444e+000  5.435200e-001  0.000000e+000
      vertex -9.928444e+000 -5.435200e-001  0.000000e+000
    endloop
  endfacet
  facet normal  0.000000e+000  0.000000e+000 -1.000000e+000
    outer loop
      vertex -9.928444e+000 -5.435200e-001  0.000000e+000
      vertex -9.928444e+000  5.435200e-001  0.000000e+000
      vertex -9.718654e+000  1.050000e+000  0.000000e+000
    endloop
  endfacet
  facet normal  0.000000e+000  -0.000000e+000 -1.000000e+000
    outer loop
      vertex -9.928444e+000 -5.435200e-001  0.000000e+000
      vertex -9.718654e+000  1.050000e+000  0.000000e+000
      vertex -9.718654e+000 -1.050000e+000  0.000000e+000
    endloop
  endfacet
  facet normal  0.000000e+000  0.000000e+000 -1.000000e+000
    outer loop
      vertex -9.718654e+000 -1.050000e+000  0.000000e+000
      vertex -9.718654e+000  1.050000e+000  0.000000e+000
      vertex -9.384924e+000  1.484924e+000  0.000000e+000
    endloop
  endfacet
  facet normal  0.000000e+000  -0.000000e+000 -1.000000e+000
    outer loop
      vertex -9.718654e+000 -1.050000e+000  0.000000e+000
      vertex -9.384924e+000  1.484924e+000  0.000000e+000
      vertex -9.384924e+000 -1.484924e+000  0.000000e+000
    endloop
  endfacet
  facet normal  -0.000000e+000  0.000000e+000 -9.999999e-001
    outer loop
      vertex -8.607107e+000 -7.071068e-001  0.000000e+000
      vertex -8.282683e+000 -9.238795e-001  0.000000e+000
      vertex -8.443520e+000 -2.028444e+000  0.000000e+000
    endloop
  endfacet
  facet normal  0.000000e+000  0.000000e+000 -1.000000e+000
    outer loop
      vertex -8.443520e+000 -2.028444e+000  0.000000e+000
      vertex -8.282683e+000 -9.238795e-001  0.000000e+000
      vertex -7.900000e+000 -1.000000e+000  0.000000e+000
    endloop
  endfacet
  facet normal  0.000000e+000  -0.000000e+000 -1.000000e+000
    outer loop
      vertex -8.443520e+000 -2.028444e+000  0.000000e+000
      vertex -7.900000e+000 -1.000000e+000  0.000000e+000
      vertex -7.900000e+000 -2.100000e+000  0.000000e+000
    endloop
  endfacet
  facet normal  0.000000e+000  0.000000e+000 -1.000000e+000
    outer loop
      vertex -8.900000e+000  3.061516e-016  0.000000e+000
      vertex -8.950000e+000  1.818653e+000  0.000000e+000
      vertex -8.823879e+000  3.826834e-001  0.000000e+000
    endloop
  endfacet
  facet normal  0.000000e+000  0.000000e+000 -1.000000e+000
    outer loop
      vertex -8.823879e+000  3.826834e-001  0.000000e+000
      vertex -8.950000e+000  1.818653e+000  0.000000e+000
      vertex -8.443520e+000  2.028444e+000  0.000000e+000
    endloop
  endfacet
  facet normal  0.000000e+000  0.000000e+000 -1.000000e+000
    outer loop
      vertex -8.823879e+000  3.826834e-001  0.000000e+000
      vertex -8.443520e+000  2.028444e+000  0.000000e+000
      vertex -8.607107e+000  7.071068e-001  0.000000e+000
    endloop
  endfacet
  facet normal  0.000000e+000  -0.000000e+000 -9.999999e-001
    outer loop
      vertex -8.607107e+000  7.071068e-001  0.000000e+000
      vertex -8.443520e+000  2.028444e+000  0.000000e+000
      vertex -8.282683e+000  9.238795e-001  0.000000e+000
    endloop
  endfacet
  facet normal  0.000000e+000  0.000000e+000 -1.000000e+000
    outer loop
      vertex -8.282683e+000  9.238795e-001  0.000000e+000
      vertex -8.443520e+000  2.028444e+000  0.000000e+000
      vertex -7.900000e+000  2.100000e+000  0.000000e+000
    endloop
  endfacet
  facet normal  0.000000e+000  -0.000000e+000 -9.999999e-001
    outer loop
      vertex -8.282683e+000  9.238795e-001  0.000000e+000
      vertex -7.900000e+000  2.100000e+000  0.000000e+000
      vertex -7.900000e+000  1.000000e+000  0.000000e+000
    endloop
  endfacet
  facet normal  0.000000e+000  0.000000e+000 -1.000000e+000
    outer loop
      vertex -7.900000e+000  1.000000e+000  0.000000e+000
      vertex -7.900000e+000  2.100000e+000  0.000000e+000
      vertex -4.792914e+000  2.100000e+000  0.000000e+000
    endloop
  endfacet
  facet normal  0.000000e+000  0.000000e+000 -1.000000e+000
    outer loop
      vertex -7.900000e+000  1.000000e+000  0.000000e+000
      vertex -4.792914e+000  2.100000e+000  0.000000e+000
      vertex -4.932051e+000  1.000000e+000  0.000000e+000
    endloop
  endfacet
  facet normal  0.000000e+000  0.000000e+000  1.000000e+000
    outer loop
      vertex -8.607107e+000 -7.071068e-001  3.000000e+000
      vertex -8.823879e+000 -3.826834e-001  3.000000e+000
      vertex -8.443520e+000 -2.028444e+000  3.000000e+000
    endloop
  endfacet
  facet normal  0.000000e+000  0.000000e+000  1.000000e+000
    outer loop
      vertex -8.950000e+000 -1.818653e+000  3.000000e+000
      vertex -8.443520e+000 -2.028444e+000  3.000000e+000
      vertex -8.823879e+000 -3.826834e-001  3.000000e+000
    endloop
  endfacet
  facet normal  0.000000e+000  0.000000e+000  1.000000e+000
    outer loop
      vertex -8.950000e+000 -1.818653e+000  3.000000e+000
      vertex -8.823879e+000 -3.826834e-001  3.000000e+000
      vertex -8.900000e+000  3.061516e-016  3.000000e+000
    endloop
  endfacet
  facet normal  0.000000e+000  0.000000e+000  1.000000e+000
    outer loop
      vertex -8.950000e+000 -1.818653e+000  3.000000e+000
      vertex -8.900000e+000  3.061516e-016  3.000000e+000
      vertex -8.950000e+000  1.818653e+000  3.000000e+000
    endloop
  endfacet
  facet normal  0.000000e+000  0.000000e+000  1.000000e+000
    outer loop
      vertex -8.950000e+000 -1.818653e+000  3.000000e+000
      vertex -8.950000e+000  1.818653e+000  3.000000e+000
      vertex -9.384924e+000  1.484924e+000  3.000000e+000
    endloop
  endfacet
  facet normal  0.000000e+000  0.000000e+000  1.000000e+000
    outer loop
      vertex -8.950000e+000 -1.818653e+000  3.000000e+000
      vertex -9.384924e+000  1.484924e+000  3.000000e+000
      vertex -9.384924e+000 -1.484924e+000  3.000000e+000
    endloop
  endfacet
  facet normal  0.000000e+000  0.000000e+000  1.000000e+000
    outer loop
      vertex  1.000000e+000 -2.100000e+000  3.000000e+000
      vertex  1.000000e+000 -1.000000e+000  3.000000e+000
      vertex  5.000000e-001 -5.000000e-001  3.000000e+000
    endloop
  endfacet
  facet normal  0.000000e+000  0.000000e+000  9.999999e-001
    outer loop
      vertex  1.000000e+000 -2.100000e+000  3.000000e+000
      vertex  5.000000e-001 -5.000000e-001  3.000000e+000
      vertex -4.066025e+000 -5.000000e-001  3.000000e+000
    endloop
  endfacet
  facet normal  0.000000e+000  0.000000e+000  1.000000e+000
    outer loop
      vertex  1.000000e+000 -2.100000e+000  3.000000e+000
      vertex -4.066025e+000 -5.000000e-001  3.000000e+000
      vertex -4.932051e+000 -1.000000e+000  3.000000e+000
    endloop
  endfacet
  facet normal  0.000000e+000  0.000000e+000  1.000000e+000
    outer loop
      vertex  1.000000e+000 -2.100000e+000  3.000000e+000
      vertex -4.932051e+000 -1.000000e+000  3.000000e+000
      vertex -7.900000e+000 -1.000000e+000  3.000000e+000
    endloop
  endfacet
  facet normal  0.000000e+000  0.000000e+000  1.000000e+000
    outer loop
      vertex  1.000000e+000 -2.100000e+000  3.000000e+000
      vertex -7.900000e+000 -1.000000e+000  3.000000e+000
      vertex -7.900000e+000 -2.100000e+000  3.000000e+000
    endloop
  endfacet
  facet normal  0.000000e+000  0.000000e+000  1.000000e+000
    outer loop
      vertex -3.200000e+000  0.000000e+000  3.000000e+000
      vertex -3.200000e+000  2.200000e+000  3.000000e+000
      vertex -3.895877e+000  2.700000e+000  3.000000e+000
    endloop
  endfacet
  facet normal  0.000000e+000  0.000000e+000  1.000000e+000
    outer loop
      vertex -3.200000e+000  0.000000e+000  3.000000e+000
      vertex -3.895877e+000  2.700000e+000  3.000000e+000
      vertex -4.471520e+000  2.216978e+000  3.000000e+000
    endloop
  endfacet
  facet normal  0.000000e+000  0.000000e+000  1.000000e+000
    outer loop
      vertex -3.200000e+000  0.000000e+000  3.000000e+000
      vertex -4.471520e+000  2.216978e+000  3.000000e+000
      vertex -4.621904e+000  2.130154e+000  3.000000e+000
    endloop
  endfacet
  facet normal  0.000000e+000  0.000000e+000  1.000000e+000
    outer loop
      vertex -3.200000e+000  0.000000e+000  3.000000e+000
      vertex -4.621904e+000  2.130154e+000  3.000000e+000
      vertex -4.792914e+000  2.100000e+000  3.000000e+000
    endloop
  endfacet
  facet normal  0.000000e+000  0.000000e+000  1.000000e+000
    outer loop
      vertex -3.200000e+000  0.000000e+000  3.000000e+000
      vertex -4.792914e+000  2.100000e+000  3.000000e+000
      vertex -4.932051e+000  1.000000e+000  3.000000e+000
    endloop
  endfacet
  facet normal  -0.000000e+000  0.000000e+000  1.000000e+000
    outer loop
      vertex  1.000000e+000  2.700000e+000  3.000000e+000
      vertex -3.895877e+000  2.700000e+000  3.000000e+000
      vertex -3.200000e+000  2.200000e+000  3.000000e+000
    endloop
  endfacet
  facet normal  0.000000e+000  0.000000e+000  1.000000e+000
    outer loop
      vertex  1.000000e+000  2.700000e+000  3.000000e+000
      vertex -3.200000e+000  2.200000e+000  3.000000e+000
      vertex  0.000000e+000  2.200000e+000  3.000000e+000
    endloop
  endfacet
  facet normal  -0.000000e+000  0.000000e+000  1.000000e+000
    outer loop
      vertex  1.000000e+000  2.700000e+000  3.000000e+000
      vertex  0.000000e+000  2.200000e+000  3.000000e+000
      vertex  0.000000e+000  0.000000e+000  3.000000e+000
    endloop
  endfacet
  facet normal  0.000000e+000  0.000000e+000  1.000000e+000
    outer loop
      vertex  1.000000e+000  2.700000e+000  3.000000e+000
      vertex  0.000000e+000  0.000000e+000  3.000000e+000
      vertex  5.000000e-001  0.000000e+000  3.000000e+000
    endloop
  endfacet
  facet normal  0.000000e+000  0.000000e+000  1.000000e+000
    outer loop
      vertex  1.000000e+000  2.700000e+000  3.000000e+000
      vertex  5.000000e-001  0.000000e+000  3.000000e+000
      vertex  1.000000e+000  5.000000e-001  3.000000e+000
    endloop
  endfacet
  facet normal  0.000000e+000  0.000000e+000  1.000000e+000
    outer loop
      vertex -9.384924e+000 -1.484924e+000  3.000000e+000
      vertex -9.384924e+000  1.484924e+000  3.000000e+000
      vertex -9.718654e+000 -1.050000e+000  3.000000e+000
    endloop
  endfacet
  facet normal  0.000000e+000  0.000000e+000  1.000000e+000
    outer loop
      vertex -9.718654e+000 -1.050000e+000  3.000000e+000
      vertex -9.384924e+000  1.484924e+000  3.000000e+000
      vertex -9.718654e+000  1.050000e+000  3.000000e+000
    endloop
  endfacet
  facet normal  0.000000e+000  0.000000e+000  1.000000e+000
    outer loop
      vertex -9.718654e+000 -1.050000e+000  3.000000e+000
      vertex -9.718654e+000  1.050000e+000  3.000000e+000
      vertex -9.928444e+000 -5.435200e-001  3.000000e+000
    endloop
  endfacet
  facet normal  0.000000e+000  0.000000e+000  1.000000e+000
    outer loop
      vertex -9.928444e+000 -5.435200e-001  3.000000e+000
      vertex -9.718654e+000  1.050000e+000  3.000000e+000
      vertex -9.928444e+000  5.435200e-001  3.000000e+000
    endloop
  endfacet
  facet normal  0.000000e+000  0.000000e+000  1.000000e+000
    outer loop
      vertex -9.928444e+000 -5.435200e-001  3.000000e+000
      vertex -9.928444e+000  5.435200e-001  3.000000e+000
      vertex -1.000000e+001 -3.377100e-016  3.000000e+000
    endloop
  endfacet
  facet normal  0.000000e+000  0.000000e+000  1.000000e+000
    outer loop
      vertex -7.900000e+000 -2.100000e+000  3.000000e+000
      vertex -7.900000e+000 -1.000000e+000  3.000000e+000
      vertex -8.443520e+000 -2.028444e+000  3.000000e+000
    endloop
  endfacet
  facet normal  0.000000e+000  0.000000e+000  1.000000e+000
    outer loop
      vertex -8.443520e+000 -2.028444e+000  3.000000e+000
      vertex -7.900000e+000 -1.000000e+000  3.000000e+000
      vertex -8.282683e+000 -9.238795e-001  3.000000e+000
    endloop
  endfacet
  facet normal  0.000000e+000  0.000000e+000  9.999999e-001
    outer loop
      vertex -8.443520e+000 -2.028444e+000  3.000000e+000
      vertex -8.282683e+000 -9.238795e-001  3.000000e+000
      vertex -8.607107e+000 -7.071068e-001  3.000000e+000
    endloop
  endfacet
  facet normal  0.000000e+000  0.000000e+000  1.000000e+000
    outer loop
      vertex -8.607107e+000  7.071068e-001  3.000000e+000
      vertex -8.443520e+000  2.028444e+000  3.000000e+000
      vertex -8.823879e+000  3.826834e-001  3.000000e+000
    endloop
  endfacet
  facet normal  0.000000e+000  -0.000000e+000  1.000000e+000
    outer loop
      vertex -8.823879e+000  3.826834e-001  3.000000e+000
      vertex -8.443520e+000  2.028444e+000  3.000000e+000
      vertex -8.950000e+000  1.818653e+000  3.000000e+000
    endloop
  endfacet
  facet normal  0.000000e+000  0.000000e+000  1.000000e+000
    outer loop
      vertex -8.823879e+000  3.826834e-001  3.000000e+000
      vertex -8.950000e+000  1.818653e+000  3.000000e+000
      vertex -8.900000e+000  3.061516e-016  3.000000e+000
    endloop
  endfacet
  facet normal  0.000000e+000  0.000000e+000  1.000000e+000
    outer loop
      vertex -4.932051e+000  1.000000e+000  3.000000e+000
      vertex -4.792914e+000  2.100000e+000  3.000000e+000
      vertex -7.900000e+000  1.000000e+000  3.000000e+000
    endloop
  endfacet
  facet normal  0.000000e+000  0.000000e+000  1.000000e+000
    outer loop
      vertex -7.900000e+000  1.000000e+000  3.000000e+000
      vertex -4.792914e+000  2.100000e+000  3.000000e+000
      vertex -7.900000e+000  2.100000e+000  3.000000e+000
    endloop
  endfacet
  facet normal  0.000000e+000  0.000000e+000  9.999999e-001
    outer loop
      vertex -7.900000e+000  1.000000e+000  3.000000e+000
      vertex -7.900000e+000  2.100000e+000  3.000000e+000
      vertex -8.282683e+000  9.238795e-001  3.000000e+000
    endloop
  endfacet
  facet normal  0.000000e+000  -0.000000e+000  1.000000e+000
    outer loop
      vertex -8.282683e+000  9.238795e-001  3.000000e+000
      vertex -7.900000e+000  2.100000e+000  3.000000e+000
      vertex -8.443520e+000  2.028444e+000  3.000000e+000
    endloop
  endfacet
  facet normal  0.000000e+000  0.000000e+000  9.999999e-001
    outer loop
      vertex -8.282683e+000  9.238795e-001  3.000000e+000
      vertex -8.443520e+000  2.028444e+000  3.000000e+000
      vertex -8.607107e+000  7.071068e-001  3.000000e+000
    endloop
  endfacet
  facet normal  0.000000e+000  9.789386e-001 -2.041550e-001
    outer loop
      vertex -3.118015e+000  3.200000e+000  5.000000e-001
      vertex  1.000000e+000  3.200000e+000  5.000000e-001
      vertex -3.317869e+000  3.158321e+000  3.001454e-001
    endloop
  endfacet
  facet normal  2.655747e-003  9.659224e-001 -2.588180e-001
    outer loop
      vertex -3.317869e+000  3.158321e+000  3.001454e-001
      vertex  1.000000e+000  3.200000e+000  5.000000e-001
      vertex  1.000000e+000  3.133013e+000  2.500000e-001
    endloop
  endfacet
  facet normal -1.121461e-003  8.505776e-001 -5.258483e-001
    outer loop
      vertex -3.317869e+000  3.158321e+000  3.001454e-001
      vertex  1.000000e+000  3.133013e+000  2.500000e-001
      vertex -3.439409e+000  3.083022e+000  1.786062e-001
    endloop
  endfacet
  facet normal  4.054240e-003  6.830385e-001 -7.303711e-001
    outer loop
      vertex -3.439409e+000  3.083022e+000  1.786062e-001
      vertex  1.000000e+000  3.133013e+000  2.500000e-001
      vertex -3.540876e+000  2.997881e+000  9.841947e-002
    endloop
  endfacet
  facet normal  2.561392e-003  7.071044e-001 -7.071045e-001
    outer loop
      vertex -3.540876e+000  2.997881e+000  9.841947e-002
      vertex  1.000000e+000  3.133013e+000  2.500000e-001
      vertex  1.000000e+000  2.950000e+000  6.698730e-002
    endloop
  endfacet
  facet normal -1.327929e-003  4.577230e-001 -8.890939e-001
    outer loop
      vertex -3.540876e+000  2.997881e+000  9.841947e-002
      vertex  1.000000e+000  2.950000e+000  6.698730e-002
      vertex -3.714190e+000  2.852454e+000  2.380952e-002
    endloop
  endfacet
  facet normal  0.000000e+000  1.543050e-001 -9.880232e-001
    outer loop
      vertex -3.895877e+000  2.700000e+000  0.000000e+000
      vertex -3.714190e+000  2.852454e+000  2.380952e-002
      vertex  1.000000e+000  2.700000e+000  0.000000e+000
    endloop
  endfacet
  facet normal  3.491496e-003  2.588175e-001 -9.659199e-001
    outer loop
      vertex  1.000000e+000  2.700000e+000  0.000000e+000
      vertex -3.714190e+000  2.852454e+000  2.380952e-002
      vertex  1.000000e+000  2.950000e+000  6.698730e-002
    endloop
  endfacet
  facet normal  0.000000e+000  1.543044e-001  9.880234e-001
    outer loop
      vertex -3.895877e+000  2.700000e+000  3.000000e+000
      vertex  1.000000e+000  2.700000e+000  3.000000e+000
      vertex -3.714190e+000  2.852454e+000  2.976191e+000
    endloop
  endfacet
  facet normal  3.491512e-003  2.588174e-001  9.659199e-001
    outer loop
      vertex -3.714190e+000  2.852454e+000  2.976191e+000
      vertex  1.000000e+000  2.700000e+000  3.000000e+000
      vertex  1.000000e+000  2.950000e+000  2.933013e+000
    endloop
  endfacet
  facet normal -1.327923e-003  4.577233e-001  8.890938e-001
    outer loop
      vertex -3.714190e+000  2.852454e+000  2.976191e+000
      vertex  1.000000e+000  2.950000e+000  2.933013e+000
      vertex -3.540876e+000  2.997881e+000  2.901581e+000
    endloop
  endfacet
  facet normal  2.166949e-003  6.842380e-001  7.292556e-001
    outer loop
      vertex -3.540876e+000  2.997881e+000  2.901581e+000
      vertex  1.000000e+000  2.950000e+000  2.933013e+000
      vertex -3.439409e+000  3.083022e+000  2.821394e+000
    endloop
  endfacet
  facet normal  3.409051e-003  7.071027e-001  7.071027e-001
    outer loop
      vertex -3.439409e+000  3.083022e+000  2.821394e+000
      vertex  1.000000e+000  2.950000e+000  2.933013e+000
      vertex  1.000000e+000  3.133013e+000  2.750000e+000
    endloop
  endfacet
  facet normal -1.121466e-003  8.505776e-001  5.258484e-001
    outer loop
      vertex -3.439409e+000  3.083022e+000  2.821394e+000
      vertex  1.000000e+000  3.133013e+000  2.750000e+000
      vertex -3.317869e+000  3.158321e+000  2.699855e+000
    endloop
  endfacet
  facet normal  -0.000000e+000  9.659259e-001  2.588190e-001
    outer loop
      vertex  1.000000e+000  3.200000e+000  2.500000e+000
      vertex -3.118015e+000  3.200000e+000  2.500000e+000
      vertex  1.000000e+000  3.133013e+000  2.750000e+000
    endloop
  endfacet
  facet normal  3.325915e-003  9.782633e-001  2.073401e-001
    outer loop
      vertex  1.000000e+000  3.133013e+000  2.750000e+000
      vertex -3.118015e+000  3.200000e+000  2.500000e+000
      vertex -3.317869e+000  3.158321e+000  2.699855e+000
    endloop
  endfacet
  facet normal  9.999999e-001  -0.000000e+000  0.000000e+000
    outer loop
      vertex  1.500000e+000  2.700000e+000  2.500000e+000
      vertex  1.500000e+000  1.000000e+000  2.500000e+000
      vertex  1.500000e+000  2.700000e+000  5.000000e-001
    endloop
  endfacet
  facet normal  9.999999e-001  0.000000e+000  0.000000e+000
    outer loop
      vertex  1.500000e+000  2.700000e+000  5.000000e-001
      vertex  1.500000e+000  1.000000e+000  2.500000e+000
      vertex  1.500000e+000  1.000000e+000  5.000000e-001
    endloop
  endfacet
  facet normal  0.000000e+000  1.000000e+000  0.000000e+000
    outer loop
      vertex -3.118015e+000  3.200000e+000  2.500000e+000
      vertex  1.000000e+000  3.200000e+000  2.500000e+000
      vertex -3.118015e+000  3.200000e+000  5.000000e-001
    endloop
  endfacet
  facet normal  0.000000e+000  1.000000e+000  0.000000e+000
    outer loop
      vertex -3.118015e+000  3.200000e+000  5.000000e-001
      vertex  1.000000e+000  3.200000e+000  2.500000e+000
      vertex  1.000000e+000  3.200000e+000  5.000000e-001
    endloop
  endfacet
  facet normal  7.071078e-001 -7.071057e-001  6.137017e-007
    outer loop
      vertex  1.500000e+000  1.000000e+000  2.500000e+000
      vertex  1.475493e+000  9.754933e-001  2.654616e+000
      vertex  1.424798e+000  9.247985e-001  2.763715e+000
    endloop
  endfacet
  facet normal  7.071068e-001 -7.071068e-001  0.000000e+000
    outer loop
      vertex  1.500000e+000  1.000000e+000  2.500000e+000
      vertex  1.424798e+000  9.247985e-001  2.763715e+000
      vertex  1.356023e+000  8.560230e-001  2.851066e+000
    endloop
  endfacet
  facet normal  7.071070e-001 -7.071065e-001  1.918319e-007
    outer loop
      vertex  1.500000e+000  1.000000e+000  2.500000e+000
      vertex  1.356023e+000  8.560230e-001  2.851066e+000
      vertex  1.227240e+000  7.272395e-001  2.945378e+000
    endloop
  endfacet
  facet normal  7.071066e-001 -7.071069e-001 -2.441630e-007
    outer loop
      vertex  1.500000e+000  1.000000e+000  2.500000e+000
      vertex  1.227240e+000  7.272395e-001  2.945378e+000
      vertex  1.000000e+000  5.000000e-001  3.000000e+000
    endloop
  endfacet
  facet normal  7.071068e-001 -7.071068e-001  0.000000e+000
    outer loop
      vertex  1.500000e+000  1.000000e+000  2.500000e+000
      vertex  1.000000e+000  5.000000e-001  3.000000e+000
      vertex  5.000000e-001  0.000000e+000  3.000000e+000
    endloop
  endfacet
  facet normal  7.071068e-001 -7.071068e-001  0.000000e+000
    outer loop
      vertex  1.500000e+000  1.000000e+000  2.500000e+000
      vertex  5.000000e-001  0.000000e+000  3.000000e+000
      vertex  5.000000e-001  0.000000e+000  0.000000e+000
    endloop
  endfacet
  facet normal  7.071068e-001 -7.071068e-001  0.000000e+000
    outer loop
      vertex  1.500000e+000  1.000000e+000  2.500000e+000
      vertex  5.000000e-001  0.000000e+000  0.000000e+000
      vertex  1.500000e+000  1.000000e+000  5.000000e-001
    endloop
  endfacet
  facet normal  7.071068e-001 -7.071068e-001 -7.716106e-007
    outer loop
      vertex  5.000000e-001  0.000000e+000  0.000000e+000
      vertex  1.000000e+000  5.000000e-001  0.000000e+000
      vertex  1.227240e+000  7.272395e-001  5.462192e-002
    endloop
  endfacet
  facet normal  7.071067e-001 -7.071068e-001  5.861423e-007
    outer loop
      vertex  5.000000e-001  0.000000e+000  0.000000e+000
      vertex  1.227240e+000  7.272395e-001  5.462192e-002
      vertex  1.356023e+000  8.560230e-001  1.489335e-001
    endloop
  endfacet
  facet normal  7.071068e-001 -7.071068e-001  0.000000e+000
    outer loop
      vertex  5.000000e-001  0.000000e+000  0.000000e+000
      vertex  1.356023e+000  8.560230e-001  1.489335e-001
      vertex  1.424798e+000  9.247985e-001  2.362846e-001
    endloop
  endfacet
  facet normal  7.071068e-001 -7.071069e-001  4.383598e-007
    outer loop
      vertex  5.000000e-001  0.000000e+000  0.000000e+000
      vertex  1.424798e+000  9.247985e-001  2.362846e-001
      vertex  1.475493e+000  9.754933e-001  3.453838e-001
    endloop
  endfacet
  facet normal  7.071068e-001 -7.071067e-001 -2.960523e-007
    outer loop
      vertex  5.000000e-001  0.000000e+000  0.000000e+000
      vertex  1.475493e+000  9.754933e-001  3.453838e-001
      vertex  1.500000e+000  1.000000e+000  5.000000e-001
    endloop
  endfacet
  facet normal  9.659258e-001  0.000000e+000 -2.588190e-001
    outer loop
      vertex  1.500000e+000  2.700000e+000  5.000000e-001
      vertex  1.500000e+000  1.000000e+000  5.000000e-001
      vertex  1.433013e+000  2.700000e+000  2.500000e-001
    endloop
  endfacet
  facet normal  9.871681e-001  1.552688e-002 -1.589280e-001
    outer loop
      vertex  1.433013e+000  2.700000e+000  2.500000e-001
      vertex  1.500000e+000  1.000000e+000  5.000000e-001
      vertex  1.475493e+000  9.754933e-001  3.453838e-001
    endloop
  endfacet
  facet normal  9.070443e-001 -9.441399e-004 -4.210343e-001
    outer loop
      vertex  1.433013e+000  2.700000e+000  2.500000e-001
      vertex  1.475493e+000  9.754933e-001  3.453838e-001
      vertex  1.424798e+000  9.247985e-001  2.362846e-001
    endloop
  endfacet
  facet normal  7.071050e-001  2.191228e-003 -7.071051e-001
    outer loop
      vertex  1.433013e+000  2.700000e+000  2.500000e-001
      vertex  1.424798e+000  9.247985e-001  2.362846e-001
      vertex  1.250000e+000  2.700000e+000  6.698730e-002
    endloop
  endfacet
  facet normal  7.790559e-001  1.694165e-002 -6.267254e-001
    outer loop
      vertex  1.250000e+000  2.700000e+000  6.698730e-002
      vertex  1.424798e+000  9.247985e-001  2.362846e-001
      vertex  1.356023e+000  8.560230e-001  1.489335e-001
    endloop
  endfacet
  facet normal  5.919919e-001 -1.778316e-003 -8.059419e-001
    outer loop
      vertex  1.250000e+000  2.700000e+000  6.698730e-002
      vertex  1.356023e+000  8.560230e-001  1.489335e-001
      vertex  1.227240e+000  7.272395e-001  5.462192e-002
    endloop
  endfacet
  facet normal  2.304593e-001  3.440414e-003 -9.730759e-001
    outer loop
      vertex  1.227240e+000  7.272395e-001  5.462192e-002
      vertex  1.000000e+000  5.000000e-001  0.000000e+000
      vertex  1.250000e+000  2.700000e+000  6.698730e-002
    endloop
  endfacet
  facet normal  2.588190e-001  0.000000e+000 -9.659258e-001
    outer loop
      vertex  1.250000e+000  2.700000e+000  6.698730e-002
      vertex  1.000000e+000  5.000000e-001  0.000000e+000
      vertex  1.000000e+000  2.700000e+000  0.000000e+000
    endloop
  endfacet
  facet normal  2.588190e-001  -0.000000e+000  9.659259e-001
    outer loop
      vertex  1.000000e+000  2.700000e+000  3.000000e+000
      vertex  1.000000e+000  5.000000e-001  3.000000e+000
      vertex  1.250000e+000  2.700000e+000  2.933013e+000
    endloop
  endfacet
  facet normal  2.304594e-001  3.440392e-003  9.730759e-001
    outer loop
      vertex  1.250000e+000  2.700000e+000  2.933013e+000
      vertex  1.000000e+000  5.000000e-001  3.000000e+000
      vertex  1.227240e+000  7.272395e-001  2.945378e+000
    endloop
  endfacet
  facet normal  5.919923e-001 -1.778338e-003  8.059416e-001
    outer loop
      vertex  1.250000e+000  2.700000e+000  2.933013e+000
      vertex  1.227240e+000  7.272395e-001  2.945378e+000
      vertex  1.356023e+000  8.560230e-001  2.851066e+000
    endloop
  endfacet
  facet normal  7.070766e-001  9.232212e-003  7.070766e-001
    outer loop
      vertex  1.250000e+000  2.700000e+000  2.933013e+000
      vertex  1.356023e+000  8.560230e-001  2.851066e+000
      vertex  1.433013e+000  2.700000e+000  2.750000e+000
    endloop
  endfacet
  facet normal  7.852542e-001  1.150209e-003  6.191725e-001
    outer loop
      vertex  1.433013e+000  2.700000e+000  2.750000e+000
      vertex  1.356023e+000  8.560230e-001  2.851066e+000
      vertex  1.424798e+000  9.247985e-001  2.763715e+000
    endloop
  endfacet
  facet normal  9.659229e-001 -2.469893e-003  2.588182e-001
    outer loop
      vertex  1.433013e+000  2.700000e+000  2.750000e+000
      vertex  1.424798e+000  9.247985e-001  2.763715e+000
      vertex  1.500000e+000  2.700000e+000  2.500000e+000
    endloop
  endfacet
  facet normal  9.019327e-001  2.583470e-002  4.311032e-001
    outer loop
      vertex  1.500000e+000  2.700000e+000  2.500000e+000
      vertex  1.424798e+000  9.247985e-001  2.763715e+000
      vertex  1.475493e+000  9.754933e-001  2.654616e+000
    endloop
  endfacet
  facet normal  9.876706e-001  0.000000e+000  1.565465e-001
    outer loop
      vertex  1.500000e+000  2.700000e+000  2.500000e+000
      vertex  1.475493e+000  9.754933e-001  2.654616e+000
      vertex  1.500000e+000  1.000000e+000  2.500000e+000
    endloop
  endfacet
  facet normal  9.636114e-001  2.581988e-001  6.918439e-002
    outer loop
      vertex  1.500000e+000  2.700000e+000  2.500000e+000
      vertex  1.433013e+000  2.950000e+000  2.500000e+000
      vertex  1.433013e+000  2.916506e+000  2.625000e+000
    endloop
  endfacet
  facet normal  9.636114e-001  1.890147e-001  1.890147e-001
    outer loop
      vertex  1.500000e+000  2.700000e+000  2.500000e+000
      vertex  1.433013e+000  2.916506e+000  2.625000e+000
      vertex  1.433013e+000  2.825000e+000  2.716506e+000
    endloop
  endfacet
  facet normal  9.636114e-001  6.918439e-002  2.581988e-001
    outer loop
      vertex  1.500000e+000  2.700000e+000  2.500000e+000
      vertex  1.433013e+000  2.825000e+000  2.716506e+000
      vertex  1.433013e+000  2.700000e+000  2.750000e+000
    endloop
  endfacet
  facet normal  6.947465e-001  1.861574e-001  6.947465e-001
    outer loop
      vertex  1.433013e+000  2.700000e+000  2.750000e+000
      vertex  1.433013e+000  2.825000e+000  2.716506e+000
      vertex  1.250000e+000  2.700000e+000  2.933013e+000
    endloop
  endfacet
  facet normal  6.947467e-001  1.861569e-001  6.947465e-001
    outer loop
      vertex  1.250000e+000  2.700000e+000  2.933013e+000
      vertex  1.433013e+000  2.825000e+000  2.716506e+000
      vertex  1.250000e+000  2.916506e+000  2.875000e+000
    endloop
  endfacet
  facet normal  2.505627e-001  2.505630e-001  9.351131e-001
    outer loop
      vertex  1.250000e+000  2.700000e+000  2.933013e+000
      vertex  1.250000e+000  2.916506e+000  2.875000e+000
      vertex  1.000000e+000  2.700000e+000  3.000000e+000
    endloop
  endfacet
  facet normal  2.505630e-001  2.505627e-001  9.351131e-001
    outer loop
      vertex  1.000000e+000  2.700000e+000  3.000000e+000
      vertex  1.250000e+000  2.916506e+000  2.875000e+000
      vertex  1.000000e+000  2.950000e+000  2.933013e+000
    endloop
  endfacet
  facet normal  6.947468e-001  6.947463e-001  1.861573e-001
    outer loop
      vertex  1.433013e+000  2.916506e+000  2.625000e+000
      vertex  1.433013e+000  2.950000e+000  2.500000e+000
      vertex  1.250000e+000  3.075000e+000  2.716506e+000
    endloop
  endfacet
  facet normal  6.947466e-001  6.947466e-001  1.861569e-001
    outer loop
      vertex  1.250000e+000  3.075000e+000  2.716506e+000
      vertex  1.433013e+000  2.950000e+000  2.500000e+000
      vertex  1.250000e+000  3.133013e+000  2.500000e+000
    endloop
  endfacet
  facet normal  2.505630e-001  9.351130e-001  2.505630e-001
    outer loop
      vertex  1.250000e+000  3.075000e+000  2.716506e+000
      vertex  1.250000e+000  3.133013e+000  2.500000e+000
      vertex  1.000000e+000  3.133013e+000  2.750000e+000
    endloop
  endfacet
  facet normal  2.505627e-001  9.351132e-001  2.505627e-001
    outer loop
      vertex  1.000000e+000  3.133013e+000  2.750000e+000
      vertex  1.250000e+000  3.133013e+000  2.500000e+000
      vertex  1.000000e+000  3.200000e+000  2.500000e+000
    endloop
  endfacet
  facet normal  6.947466e-001  5.085898e-001  5.085898e-001
    outer loop
      vertex  1.433013e+000  2.825000e+000  2.716506e+000
      vertex  1.433013e+000  2.916506e+000  2.625000e+000
      vertex  1.250000e+000  2.916506e+000  2.875000e+000
    endloop
  endfacet
  facet normal  6.947465e-001  5.085898e-001  5.085898e-001
    outer loop
      vertex  1.250000e+000  2.916506e+000  2.875000e+000
      vertex  1.433013e+000  2.916506e+000  2.625000e+000
      vertex  1.250000e+000  3.075000e+000  2.716506e+000
    endloop
  endfacet
  facet normal  2.505631e-001  6.845503e-001  6.845503e-001
    outer loop
      vertex  1.250000e+000  2.916506e+000  2.875000e+000
      vertex  1.250000e+000  3.075000e+000  2.716506e+000
      vertex  1.000000e+000  2.950000e+000  2.933013e+000
    endloop
  endfacet
  facet normal  2.505631e-001  6.845502e-001  6.845502e-001
    outer loop
      vertex  1.000000e+000  2.950000e+000  2.933013e+000
      vertex  1.250000e+000  3.075000e+000  2.716506e+000
      vertex  1.000000e+000  3.133013e+000  2.750000e+000
    endloop
  endfacet
  facet normal  2.588190e-001  9.659258e-001  0.000000e+000
    outer loop
      vertex  1.000000e+000  3.200000e+000  5.000000e-001
      vertex  1.000000e+000  3.200000e+000  2.500000e+000
      vertex  1.250000e+000  3.133013e+000  5.000000e-001
    endloop
  endfacet
  facet normal  2.588190e-001  9.659258e-001  -0.000000e+000
    outer loop
      vertex  1.250000e+000  3.133013e+000  5.000000e-001
      vertex  1.000000e+000  3.200000e+000  2.500000e+000
      vertex  1.250000e+000  3.133013e+000  2.500000e+000
    endloop
  endfacet
  facet normal  7.071068e-001  7.071068e-001  0.000000e+000
    outer loop
      vertex  1.250000e+000  3.133013e+000  5.000000e-001
      vertex  1.250000e+000  3.133013e+000  2.500000e+000
      vertex  1.433013e+000  2.950000e+000  5.000000e-001
    endloop
  endfacet
  facet normal  7.071068e-001  7.071068e-001  -0.000000e+000
    outer loop
      vertex  1.433013e+000  2.950000e+000  5.000000e-001
      vertex  1.250000e+000  3.133013e+000  2.500000e+000
      vertex  1.433013e+000  2.950000e+000  2.500000e+000
    endloop
  endfacet
  facet normal  9.659258e-001  2.588190e-001  0.000000e+000
    outer loop
      vertex  1.433013e+000  2.950000e+000  5.000000e-001
      vertex  1.433013e+000  2.950000e+000  2.500000e+000
      vertex  1.500000e+000  2.700000e+000  5.000000e-001
    endloop
  endfacet
  facet normal  9.659258e-001  2.588190e-001  -0.000000e+000
    outer loop
      vertex  1.500000e+000  2.700000e+000  5.000000e-001
      vertex  1.433013e+000  2.950000e+000  2.500000e+000
      vertex  1.500000e+000  2.700000e+000  2.500000e+000
    endloop
  endfacet
  facet normal  9.636114e-001  6.918414e-002 -2.581988e-001
    outer loop
      vertex  1.500000e+000  2.700000e+000  5.000000e-001
      vertex  1.433013e+000  2.700000e+000  2.500000e-001
      vertex  1.433013e+000  2.825000e+000  2.834936e-001
    endloop
  endfacet
  facet normal  9.636114e-001  1.890148e-001 -1.890145e-001
    outer loop
      vertex  1.500000e+000  2.700000e+000  5.000000e-001
      vertex  1.433013e+000  2.825000e+000  2.834936e-001
      vertex  1.433013e+000  2.916506e+000  3.750000e-001
    endloop
  endfacet
  facet normal  9.636114e-001  2.581988e-001 -6.918439e-002
    outer loop
      vertex  1.500000e+000  2.700000e+000  5.000000e-001
      vertex  1.433013e+000  2.916506e+000  3.750000e-001
      vertex  1.433013e+000  2.950000e+000  5.000000e-001
    endloop
  endfacet
  facet normal  6.947465e-001  6.947465e-001 -1.861574e-001
    outer loop
      vertex  1.433013e+000  2.950000e+000  5.000000e-001
      vertex  1.433013e+000  2.916506e+000  3.750000e-001
      vertex  1.250000e+000  3.133013e+000  5.000000e-001
    endloop
  endfacet
  facet normal  6.947467e-001  6.947464e-001 -1.861568e-001
    outer loop
      vertex  1.250000e+000  3.133013e+000  5.000000e-001
      vertex  1.433013e+000  2.916506e+000  3.750000e-001
      vertex  1.250000e+000  3.075000e+000  2.834936e-001
    endloop
  endfacet
  facet normal  2.505627e-001  9.351131e-001 -2.505629e-001
    outer loop
      vertex  1.250000e+000  3.133013e+000  5.000000e-001
      vertex  1.250000e+000  3.075000e+000  2.834936e-001
      vertex  1.000000e+000  3.200000e+000  5.000000e-001
    endloop
  endfacet
  facet normal  2.505629e-001  9.351131e-001 -2.505627e-001
    outer loop
      vertex  1.000000e+000  3.200000e+000  5.000000e-001
      vertex  1.250000e+000  3.075000e+000  2.834936e-001
      vertex  1.000000e+000  3.133013e+000  2.500000e-001
    endloop
  endfacet
  facet normal  6.947465e-001  1.861568e-001 -6.947467e-001
    outer loop
      vertex  1.433013e+000  2.825000e+000  2.834936e-001
      vertex  1.433013e+000  2.700000e+000  2.500000e-001
      vertex  1.250000e+000  2.916506e+000  1.250000e-001
    endloop
  endfacet
  facet normal  6.947465e-001  1.861569e-001 -6.947466e-001
    outer loop
      vertex  1.250000e+000  2.916506e+000  1.250000e-001
      vertex  1.433013e+000  2.700000e+000  2.500000e-001
      vertex  1.250000e+000  2.700000e+000  6.698730e-002
    endloop
  endfacet
  facet normal  2.505629e-001  2.505629e-001 -9.351131e-001
    outer loop
      vertex  1.250000e+000  2.916506e+000  1.250000e-001
      vertex  1.250000e+000  2.700000e+000  6.698730e-002
      vertex  1.000000e+000  2.950000e+000  6.698730e-002
    endloop
  endfacet
  facet normal  2.505628e-001  2.505628e-001 -9.351131e-001
    outer loop
      vertex  1.000000e+000  2.950000e+000  6.698730e-002
      vertex  1.250000e+000  2.700000e+000  6.698730e-002
      vertex  1.000000e+000  2.700000e+000  0.000000e+000
    endloop
  endfacet
  facet normal  6.947468e-001  5.085900e-001 -5.085893e-001
    outer loop
      vertex  1.433013e+000  2.916506e+000  3.750000e-001
      vertex  1.433013e+000  2.825000e+000  2.834936e-001
      vertex  1.250000e+000  3.075000e+000  2.834936e-001
    endloop
  endfacet
  facet normal  6.947464e-001  5.085897e-001 -5.085902e-001
    outer loop
      vertex  1.250000e+000  3.075000e+000  2.834936e-001
      vertex  1.433013e+000  2.825000e+000  2.834936e-001
      vertex  1.250000e+000  2.916506e+000  1.250000e-001
    endloop
  endfacet
  facet normal  2.505628e-001  6.845501e-001 -6.845506e-001
    outer loop
      vertex  1.250000e+000  3.075000e+000  2.834936e-001
      vertex  1.250000e+000  2.916506e+000  1.250000e-001
      vertex  1.000000e+000  3.133013e+000  2.500000e-001
    endloop
  endfacet
  facet normal  2.505631e-001  6.845502e-001 -6.845503e-001
    outer loop
      vertex  1.000000e+000  3.133013e+000  2.500000e-001
      vertex  1.250000e+000  2.916506e+000  1.250000e-001
      vertex  1.000000e+000  2.950000e+000  6.698730e-002
    endloop
  endfacet
  facet normal  7.071068e-001  7.071068e-001  -0.000000e+000
    outer loop
      vertex  1.500000e+000 -1.500000e+000  2.500000e+000
      vertex  1.500000e+000 -1.500000e+000  5.000000e-001
      vertex  5.000000e-001 -5.000000e-001  0.000000e+000
    endloop
  endfacet
  facet normal  7.071068e-001  7.071068e-001  -0.000000e+000
    outer loop
      vertex  1.500000e+000 -1.500000e+000  2.500000e+000
      vertex  5.000000e-001 -5.000000e-001  0.000000e+000
      vertex  5.000000e-001 -5.000000e-001  3.000000e+000
    endloop
  endfacet
  facet normal  7.071068e-001  7.071068e-001  0.000000e+000
    outer loop
      vertex  1.500000e+000 -1.500000e+000  2.500000e+000
      vertex  5.000000e-001 -5.000000e-001  3.000000e+000
      vertex  1.000000e+000 -1.000000e+000  3.000000e+000
    endloop
  endfacet
  facet normal  7.071068e-001  7.071068e-001  0.000000e+000
    outer loop
      vertex  1.500000e+000 -1.500000e+000  2.500000e+000
      vertex  1.000000e+000 -1.000000e+000  3.000000e+000
      vertex  1.227240e+000 -1.227240e+000  2.945378e+000
    endloop
  endfacet
  facet normal  7.071068e-001  7.071068e-001  0.000000e+000
    outer loop
      vertex  1.500000e+000 -1.500000e+000  2.500000e+000
      vertex  1.227240e+000 -1.227240e+000  2.945378e+000
      vertex  1.356023e+000 -1.356023e+000  2.851066e+000
    endloop
  endfacet
  facet normal  7.071068e-001  7.071068e-001  0.000000e+000
    outer loop
      vertex  1.500000e+000 -1.500000e+000  2.500000e+000
      vertex  1.356023e+000 -1.356023e+000  2.851066e+000
      vertex  1.424798e+000 -1.424798e+000  2.763715e+000
    endloop
  endfacet
  facet normal  7.071068e-001  7.071068e-001  0.000000e+000
    outer loop
      vertex  1.500000e+000 -1.500000e+000  2.500000e+000
      vertex  1.424798e+000 -1.424798e+000  2.763715e+000
      vertex  1.475493e+000 -1.475493e+000  2.654616e+000
    endloop
  endfacet
  facet normal  7.071068e-001  7.071068e-001  0.000000e+000
    outer loop
      vertex  5.000000e-001 -5.000000e-001  0.000000e+000
      vertex  1.500000e+000 -1.500000e+000  5.000000e-001
      vertex  1.475493e+000 -1.475493e+000  3.453838e-001
    endloop
  endfacet
  facet normal  7.071068e-001  7.071068e-001  0.000000e+000
    outer loop
      vertex  5.000000e-001 -5.000000e-001  0.000000e+000
      vertex  1.475493e+000 -1.475493e+000  3.453838e-001
      vertex  1.424798e+000 -1.424798e+000  2.362846e-001
    endloop
  endfacet
  facet normal  7.071068e-001  7.071068e-001  0.000000e+000
    outer loop
      vertex  5.000000e-001 -5.000000e-001  0.000000e+000
      vertex  1.424798e+000 -1.424798e+000  2.362846e-001
      vertex  1.356023e+000 -1.356023e+000  1.489335e-001
    endloop
  endfacet
  facet normal  7.071068e-001  7.071068e-001  0.000000e+000
    outer loop
      vertex  5.000000e-001 -5.000000e-001  0.000000e+000
      vertex  1.356023e+000 -1.356023e+000  1.489335e-001
      vertex  1.227240e+000 -1.227240e+000  5.462192e-002
    endloop
  endfacet
  facet normal  7.071068e-001  7.071068e-001  0.000000e+000
    outer loop
      vertex  5.000000e-001 -5.000000e-001  0.000000e+000
      vertex  1.227240e+000 -1.227240e+000  5.462192e-002
      vertex  1.000000e+000 -1.000000e+000  0.000000e+000
    endloop
  endfacet
  facet normal  1.000000e+000  -0.000000e+000  0.000000e+000
    outer loop
      vertex  1.500000e+000 -1.500000e+000  2.500000e+000
      vertex  1.500000e+000 -1.600000e+000  2.500000e+000
      vertex  1.500000e+000 -1.500000e+000  5.000000e-001
    endloop
  endfacet
  facet normal  1.000000e+000  0.000000e+000  0.000000e+000
    outer loop
      vertex  1.500000e+000 -1.500000e+000  5.000000e-001
      vertex  1.500000e+000 -1.600000e+000  2.500000e+000
      vertex  1.500000e+000 -1.600000e+000  5.000000e-001
    endloop
  endfacet
  facet normal  0.000000e+000 -1.000000e+000  0.000000e+000
    outer loop
      vertex  1.000000e+000 -2.100000e+000  3.000000e+000
      vertex -7.900000e+000 -2.100000e+000  3.000000e+000
      vertex  1.000000e+000 -2.100000e+000  0.000000e+000
    endloop
  endfacet
  facet normal  0.000000e+000 -1.000000e+000  0.000000e+000
    outer loop
      vertex  1.000000e+000 -2.100000e+000  0.000000e+000
      vertex -7.900000e+000 -2.100000e+000  3.000000e+000
      vertex -7.900000e+000 -2.100000e+000  0.000000e+000
    endloop
  endfacet
  facet normal  2.337145e-001  -0.000000e+000  9.723052e-001
    outer loop
      vertex  1.000000e+000 -1.000000e+000  3.000000e+000
      vertex  1.000000e+000 -2.100000e+000  3.000000e+000
      vertex  1.227240e+000 -1.227240e+000  2.945378e+000
    endloop
  endfacet
  facet normal  2.208745e-001  3.530321e-003  9.752960e-001
    outer loop
      vertex  1.227240e+000 -1.227240e+000  2.945378e+000
      vertex  1.000000e+000 -2.100000e+000  3.000000e+000
      vertex  1.216126e+000 -2.050876e+000  2.950876e+000
    endloop
  endfacet
  facet normal  5.891696e-001 -2.555809e-003  8.080055e-001
    outer loop
      vertex  1.227240e+000 -1.227240e+000  2.945378e+000
      vertex  1.216126e+000 -2.050876e+000  2.950876e+000
      vertex  1.356023e+000 -1.356023e+000  2.851066e+000
    endloop
  endfacet
  facet normal  5.485381e-001  9.655833e-003  8.360698e-001
    outer loop
      vertex  1.356023e+000 -1.356023e+000  2.851066e+000
      vertex  1.216126e+000 -2.050876e+000  2.950876e+000
      vertex  1.331541e+000 -1.974273e+000  2.874269e+000
    endloop
  endfacet
  facet normal  7.827393e-001 -7.640844e-003  6.223027e-001
    outer loop
      vertex  1.356023e+000 -1.356023e+000  2.851066e+000
      vertex  1.331541e+000 -1.974273e+000  2.874269e+000
      vertex  1.424798e+000 -1.424798e+000  2.763715e+000
    endloop
  endfacet
  facet normal  7.505346e-001  5.572115e-003  6.608076e-001
    outer loop
      vertex  1.424798e+000 -1.424798e+000  2.763715e+000
      vertex  1.331541e+000 -1.974273e+000  2.874269e+000
      vertex  1.415599e+000 -1.877988e+000  2.777985e+000
    endloop
  endfacet
  facet normal  9.059644e-001 -5.060928e-003  4.233237e-001
    outer loop
      vertex  1.424798e+000 -1.424798e+000  2.763715e+000
      vertex  1.415599e+000 -1.877988e+000  2.777985e+000
      vertex  1.475493e+000 -1.475493e+000  2.654616e+000
    endloop
  endfacet
  facet normal  9.075302e-001 -6.331387e-003  4.199390e-001
    outer loop
      vertex  1.475493e+000 -1.475493e+000  2.654616e+000
      vertex  1.415599e+000 -1.877988e+000  2.777985e+000
      vertex  1.479314e+000 -1.742329e+000  2.642335e+000
    endloop
  endfacet
  facet normal  9.878172e-001  6.990985e-003  1.554617e-001
    outer loop
      vertex  1.475493e+000 -1.475493e+000  2.654616e+000
      vertex  1.479314e+000 -1.742329e+000  2.642335e+000
      vertex  1.500000e+000 -1.500000e+000  2.500000e+000
    endloop
  endfacet
  facet normal  9.896041e-001  0.000000e+000  1.438190e-001
    outer loop
      vertex  1.500000e+000 -1.500000e+000  2.500000e+000
      vertex  1.479314e+000 -1.742329e+000  2.642335e+000
      vertex  1.500000e+000 -1.600000e+000  2.500000e+000
    endloop
  endfacet
  facet normal  9.896040e-001 -1.438192e-001  0.000000e+000
    outer loop
      vertex  1.500000e+000 -1.600000e+000  5.000000e-001
      vertex  1.500000e+000 -1.600000e+000  2.500000e+000
      vertex  1.479314e+000 -1.742335e+000  3.576706e-001
    endloop
  endfacet
  facet normal  9.896032e-001 -1.438245e-001  3.602148e-007
    outer loop
      vertex  1.479314e+000 -1.742335e+000  3.576706e-001
      vertex  1.500000e+000 -1.600000e+000  2.500000e+000
      vertex  1.479314e+000 -1.742329e+000  2.642335e+000
    endloop
  endfacet
  facet normal  9.051265e-001 -4.251425e-001  1.064789e-006
    outer loop
      vertex  1.479314e+000 -1.742335e+000  3.576706e-001
      vertex  1.479314e+000 -1.742329e+000  2.642335e+000
      vertex  1.415599e+000 -1.877985e+000  2.220116e-001
    endloop
  endfacet
  facet normal  9.051371e-001 -4.251196e-001 -4.956839e-007
    outer loop
      vertex  1.415599e+000 -1.877985e+000  2.220116e-001
      vertex  1.479314e+000 -1.742329e+000  2.642335e+000
      vertex  1.415599e+000 -1.877988e+000  2.777985e+000
    endloop
  endfacet
  facet normal  7.533135e-001 -6.576616e-001 -7.668248e-007
    outer loop
      vertex  1.415599e+000 -1.877985e+000  2.220116e-001
      vertex  1.415599e+000 -1.877988e+000  2.777985e+000
      vertex  1.331541e+000 -1.974269e+000  1.257266e-001
    endloop
  endfacet
  facet normal  7.533180e-001 -6.576566e-001 -1.083903e-006
    outer loop
      vertex  1.331541e+000 -1.974269e+000  1.257266e-001
      vertex  1.415599e+000 -1.877988e+000  2.777985e+000
      vertex  1.331541e+000 -1.974273e+000  2.874269e+000
    endloop
  endfacet
  facet normal  5.530224e-001 -8.331664e-001 -1.373166e-006
    outer loop
      vertex  1.331541e+000 -1.974269e+000  1.257266e-001
      vertex  1.331541e+000 -1.974273e+000  2.874269e+000
      vertex  1.216126e+000 -2.050876e+000  4.912373e-002
    endloop
  endfacet
  facet normal  5.529991e-001 -8.331820e-001  0.000000e+000
    outer loop
      vertex  1.216126e+000 -2.050876e+000  4.912373e-002
      vertex  1.331541e+000 -1.974273e+000  2.874269e+000
      vertex  1.216126e+000 -2.050876e+000  2.950876e+000
    endloop
  endfacet
  facet normal  2.216379e-001 -9.751291e-001  0.000000e+000
    outer loop
      vertex  1.216126e+000 -2.050876e+000  4.912373e-002
      vertex  1.216126e+000 -2.050876e+000  2.950876e+000
      vertex  1.000000e+000 -2.100000e+000  0.000000e+000
    endloop
  endfacet
  facet normal  2.216379e-001 -9.751291e-001  0.000000e+000
    outer loop
      vertex  1.000000e+000 -2.100000e+000  0.000000e+000
      vertex  1.216126e+000 -2.050876e+000  2.950876e+000
      vertex  1.000000e+000 -2.100000e+000  3.000000e+000
    endloop
  endfacet
  facet normal  9.876705e-001  0.000000e+000 -1.565466e-001
    outer loop
      vertex  1.500000e+000 -1.500000e+000  5.000000e-001
      vertex  1.500000e+000 -1.600000e+000  5.000000e-001
      vertex  1.475493e+000 -1.475493e+000  3.453838e-001
    endloop
  endfacet
  facet normal  9.885262e-001  7.208761e-003 -1.508773e-001
    outer loop
      vertex  1.475493e+000 -1.475493e+000  3.453838e-001
      vertex  1.500000e+000 -1.600000e+000  5.000000e-001
      vertex  1.479314e+000 -1.742335e+000  3.576706e-001
    endloop
  endfacet
  facet normal  9.056913e-001 -6.548339e-003 -4.238872e-001
    outer loop
      vertex  1.475493e+000 -1.475493e+000  3.453838e-001
      vertex  1.479314e+000 -1.742335e+000  3.576706e-001
      vertex  1.424798e+000 -1.424798e+000  2.362846e-001
    endloop
  endfacet
  facet normal  9.071001e-001 -5.158137e-003 -4.208832e-001
    outer loop
      vertex  1.424798e+000 -1.424798e+000  2.362846e-001
      vertex  1.479314e+000 -1.742335e+000  3.576706e-001
      vertex  1.415599e+000 -1.877985e+000  2.220116e-001
    endloop
  endfacet
  facet normal  7.870106e-001  3.454069e-003 -6.169299e-001
    outer loop
      vertex  1.424798e+000 -1.424798e+000  2.362846e-001
      vertex  1.415599e+000 -1.877985e+000  2.220116e-001
      vertex  1.356023e+000 -1.356023e+000  1.489335e-001
    endloop
  endfacet
  facet normal  7.559587e-001 -5.363837e-003 -6.545974e-001
    outer loop
      vertex  1.356023e+000 -1.356023e+000  1.489335e-001
      vertex  1.415599e+000 -1.877985e+000  2.220116e-001
      vertex  1.331541e+000 -1.974269e+000  1.257266e-001
    endloop
  endfacet
  facet normal  5.951103e-001  6.599336e-003 -8.036169e-001
    outer loop
      vertex  1.356023e+000 -1.356023e+000  1.489335e-001
      vertex  1.331541e+000 -1.974269e+000  1.257266e-001
      vertex  1.227240e+000 -1.227240e+000  5.462192e-002
    endloop
  endfacet
  facet normal  5.538798e-001 -1.915488e-003 -8.325945e-001
    outer loop
      vertex  1.227240e+000 -1.227240e+000  5.462192e-002
      vertex  1.331541e+000 -1.974269e+000  1.257266e-001
      vertex  1.216126e+000 -2.050876e+000  4.912373e-002
    endloop
  endfacet
  facet normal  2.368224e-001  3.290131e-003 -9.715473e-001
    outer loop
      vertex  1.227240e+000 -1.227240e+000  5.462192e-002
      vertex  1.216126e+000 -2.050876e+000  4.912373e-002
      vertex  1.000000e+000 -1.000000e+000  0.000000e+000
    endloop
  endfacet
  facet normal  2.216388e-001  0.000000e+000 -9.751289e-001
    outer loop
      vertex  1.000000e+000 -1.000000e+000  0.000000e+000
      vertex  1.216126e+000 -2.050876e+000  4.912373e-002
      vertex  1.000000e+000 -2.100000e+000  0.000000e+000
    endloop
  endfacet
  facet normal -6.427875e-001  7.660445e-001  0.000000e+000
    outer loop
      vertex -3.439409e+000  3.083022e+000  2.821394e+000
      vertex -3.439409e+000  3.083022e+000  1.786062e-001
      vertex -4.471520e+000  2.216978e+000  0.000000e+000
    endloop
  endfacet
  facet normal -6.427875e-001  7.660445e-001  0.000000e+000
    outer loop
      vertex -3.439409e+000  3.083022e+000  2.821394e+000
      vertex -4.471520e+000  2.216978e+000  0.000000e+000
      vertex -4.471520e+000  2.216978e+000  3.000000e+000
    endloop
  endfacet
  facet normal -6.427875e-001  7.660444e-001 -4.051095e-007
    outer loop
      vertex -3.439409e+000  3.083022e+000  2.821394e+000
      vertex -4.471520e+000  2.216978e+000  3.000000e+000
      vertex -3.895877e+000  2.700000e+000  3.000000e+000
    endloop
  endfacet
  facet normal -6.427872e-001  7.660449e-001  1.172696e-006
    outer loop
      vertex -3.439409e+000  3.083022e+000  2.821394e+000
      vertex -3.895877e+000  2.700000e+000  3.000000e+000
      vertex -3.714190e+000  2.852454e+000  2.976191e+000
    endloop
  endfacet
  facet normal -6.427881e-001  7.660441e-001 -1.505711e-006
    outer loop
      vertex -3.439409e+000  3.083022e+000  2.821394e+000
      vertex -3.714190e+000  2.852454e+000  2.976191e+000
      vertex -3.540876e+000  2.997881e+000  2.901581e+000
    endloop
  endfacet
  facet normal -6.427876e-001  7.660444e-001  3.538315e-006
    outer loop
      vertex -3.895877e+000  2.700000e+000  0.000000e+000
      vertex -4.471520e+000  2.216978e+000  0.000000e+000
      vertex -3.714190e+000  2.852454e+000  2.380952e-002
    endloop
  endfacet
  facet normal -6.427875e-001  7.660446e-001 -2.904882e-007
    outer loop
      vertex -3.714190e+000  2.852454e+000  2.380952e-002
      vertex -4.471520e+000  2.216978e+000  0.000000e+000
      vertex -3.439409e+000  3.083022e+000  1.786062e-001
    endloop
  endfacet
  facet normal -6.427881e-001  7.660440e-001  1.505714e-006
    outer loop
      vertex -3.714190e+000  2.852454e+000  2.380952e-002
      vertex -3.439409e+000  3.083022e+000  1.786062e-001
      vertex -3.540876e+000  2.997881e+000  9.841947e-002
    endloop
  endfacet
  facet normal -5.266587e-001  8.500769e-001  0.000000e+000
    outer loop
      vertex -3.439409e+000  3.083022e+000  1.786062e-001
      vertex -3.439409e+000  3.083022e+000  2.821394e+000
      vertex -3.317869e+000  3.158321e+000  3.001454e-001
    endloop
  endfacet
  facet normal -5.266587e-001  8.500769e-001  0.000000e+000
    outer loop
      vertex -3.317869e+000  3.158321e+000  3.001454e-001
      vertex -3.439409e+000  3.083022e+000  2.821394e+000
      vertex -3.317869e+000  3.158321e+000  2.699855e+000
    endloop
  endfacet
  facet normal -2.041550e-001  9.789386e-001  0.000000e+000
    outer loop
      vertex -3.317869e+000  3.158321e+000  3.001454e-001
      vertex -3.317869e+000  3.158321e+000  2.699855e+000
      vertex -3.118015e+000  3.200000e+000  5.000000e-001
    endloop
  endfacet
  facet normal -2.041550e-001  9.789385e-001  0.000000e+000
    outer loop
      vertex -3.118015e+000  3.200000e+000  5.000000e-001
      vertex -3.317869e+000  3.158321e+000  2.699855e+000
      vertex -3.118015e+000  3.200000e+000  2.500000e+000
    endloop
  endfacet
  facet normal  0.000000e+000  1.000000e+000  0.000000e+000
    outer loop
      vertex -7.900000e+000  2.100000e+000  3.000000e+000
      vertex -4.792914e+000  2.100000e+000  3.000000e+000
      vertex -7.900000e+000  2.100000e+000  0.000000e+000
    endloop
  endfacet
  facet normal  0.000000e+000  1.000000e+000  0.000000e+000
    outer loop
      vertex -7.900000e+000  2.100000e+000  0.000000e+000
      vertex -4.792914e+000  2.100000e+000  3.000000e+000
      vertex -4.792914e+000  2.100000e+000  0.000000e+000
    endloop
  endfacet
  facet normal -5.000010e-001  8.660248e-001  0.000000e+000
    outer loop
      vertex -4.471520e+000  2.216978e+000  0.000000e+000
      vertex -4.621904e+000  2.130154e+000  0.000000e+000
      vertex -4.471520e+000  2.216978e+000  3.000000e+000
    endloop
  endfacet
  facet normal -5.000010e-001  8.660248e-001  0.000000e+000
    outer loop
      vertex -4.471520e+000  2.216978e+000  3.000000e+000
      vertex -4.621904e+000  2.130154e+000  0.000000e+000
      vertex -4.621904e+000  2.130154e+000  3.000000e+000
    endloop
  endfacet
  facet normal -1.736486e-001  9.848077e-001  0.000000e+000
    outer loop
      vertex -4.621904e+000  2.130154e+000  0.000000e+000
      vertex -4.792914e+000  2.100000e+000  0.000000e+000
      vertex -4.621904e+000  2.130154e+000  3.000000e+000
    endloop
  endfacet
  facet normal -1.736486e-001  9.848077e-001  0.000000e+000
    outer loop
      vertex -4.621904e+000  2.130154e+000  3.000000e+000
      vertex -4.792914e+000  2.100000e+000  0.000000e+000
      vertex -4.792914e+000  2.100000e+000  3.000000e+000
    endloop
  endfacet
  facet normal  0.000000e+000 -1.000000e+000  -0.000000e+000
    outer loop
      vertex  5.000000e-001  0.000000e+000  0.000000e+000
      vertex  5.000000e-001  0.000000e+000  3.000000e+000
      vertex  0.000000e+000  0.000000e+000  0.000000e+000
    endloop
  endfacet
  facet normal  0.000000e+000 -1.000000e+000  0.000000e+000
    outer loop
      vertex  0.000000e+000  0.000000e+000  0.000000e+000
      vertex  5.000000e-001  0.000000e+000  3.000000e+000
      vertex  0.000000e+000  0.000000e+000  3.000000e+000
    endloop
  endfacet
  facet normal  0.000000e+000  9.999999e-001  0.000000e+000
    outer loop
      vertex -4.066025e+000 -5.000000e-001  3.000000e+000
      vertex  5.000000e-001 -5.000000e-001  3.000000e+000
      vertex -4.066025e+000 -5.000000e-001  0.000000e+000
    endloop
  endfacet
  facet normal  0.000000e+000  9.999999e-001  0.000000e+000
    outer loop
      vertex -4.066025e+000 -5.000000e-001  0.000000e+000
      vertex  5.000000e-001 -5.000000e-001  3.000000e+000
      vertex  5.000000e-001 -5.000000e-001  0.000000e+000
    endloop
  endfacet
  facet normal -1.000000e+000  0.000000e+000  0.000000e+000
    outer loop
      vertex  0.000000e+000  0.000000e+000  0.000000e+000
      vertex  0.000000e+000  0.000000e+000  3.000000e+000
      vertex  0.000000e+000  2.200000e+000  0.000000e+000
    endloop
  endfacet
  facet normal -1.000000e+000  0.000000e+000  0.000000e+000
    outer loop
      vertex  0.000000e+000  2.200000e+000  0.000000e+000
      vertex  0.000000e+000  0.000000e+000  3.000000e+000
      vertex  0.000000e+000  2.200000e+000  3.000000e+000
    endloop
  endfacet
  facet normal  0.000000e+000 -1.000000e+000  0.000000e+000
    outer loop
      vertex  0.000000e+000  2.200000e+000  3.000000e+000
      vertex -3.200000e+000  2.200000e+000  3.000000e+000
      vertex  0.000000e+000  2.200000e+000  0.000000e+000
    endloop
  endfacet
  facet normal  0.000000e+000 -1.000000e+000  0.000000e+000
    outer loop
      vertex  0.000000e+000  2.200000e+000  0.000000e+000
      vertex -3.200000e+000  2.200000e+000  3.000000e+000
      vertex -3.200000e+000  2.200000e+000  0.000000e+000
    endloop
  endfacet
  facet normal  1.000000e+000  0.000000e+000  0.000000e+000
    outer loop
      vertex -3.200000e+000  2.200000e+000  0.000000e+000
      vertex -3.200000e+000  2.200000e+000  3.000000e+000
      vertex -3.200000e+000  0.000000e+000  0.000000e+000
    endloop
  endfacet
  facet normal  1.000000e+000  0.000000e+000  0.000000e+000
    outer loop
      vertex -3.200000e+000  0.000000e+000  0.000000e+000
      vertex -3.200000e+000  2.200000e+000  3.000000e+000
      vertex -3.200000e+000  0.000000e+000  3.000000e+000
    endloop
  endfacet
  facet normal -5.000001e-001 -8.660254e-001  -0.000000e+000
    outer loop
      vertex -3.200000e+000  0.000000e+000  0.000000e+000
      vertex -3.200000e+000  0.000000e+000  3.000000e+000
      vertex -4.932051e+000  1.000000e+000  0.000000e+000
    endloop
  endfacet
  facet normal -5.000001e-001 -8.660254e-001  0.000000e+000
    outer loop
      vertex -4.932051e+000  1.000000e+000  0.000000e+000
      vertex -3.200000e+000  0.000000e+000  3.000000e+000
      vertex -4.932051e+000  1.000000e+000  3.000000e+000
    endloop
  endfacet
  facet normal  0.000000e+000 -1.000000e+000  -0.000000e+000
    outer loop
      vertex -4.932051e+000  1.000000e+000  0.000000e+000
      vertex -4.932051e+000  1.000000e+000  3.000000e+000
      vertex -7.900000e+000  1.000000e+000  0.000000e+000
    endloop
  endfacet
  facet normal  0.000000e+000 -1.000000e+000  0.000000e+000
    outer loop
      vertex -7.900000e+000  1.000000e+000  0.000000e+000
      vertex -4.932051e+000  1.000000e+000  3.000000e+000
      vertex -7.900000e+000  1.000000e+000  3.000000e+000
    endloop
  endfacet
  facet normal  9.807854e-001  1.950901e-001  0.000000e+000
    outer loop
      vertex -8.900000e+000  3.061516e-016  0.000000e+000
      vertex -8.823879e+000 -3.826834e-001  3.000000e+000
      vertex -8.823879e+000 -3.826834e-001  0.000000e+000
    endloop
  endfacet
  facet normal  8.314704e-001  5.555691e-001  -0.000000e+000
    outer loop
      vertex -8.823879e+000 -3.826834e-001  0.000000e+000
      vertex -8.823879e+000 -3.826834e-001  3.000000e+000
      vertex -8.607107e+000 -7.071068e-001  3.000000e+000
    endloop
  endfacet
  facet normal  8.314704e-001  5.555691e-001  0.000000e+000
    outer loop
      vertex -8.823879e+000 -3.826834e-001  0.000000e+000
      vertex -8.607107e+000 -7.071068e-001  3.000000e+000
      vertex -8.607107e+000 -7.071068e-001  0.000000e+000
    endloop
  endfacet
  facet normal  5.555696e-001  8.314700e-001  -0.000000e+000
    outer loop
      vertex -8.607107e+000 -7.071068e-001  0.000000e+000
      vertex -8.607107e+000 -7.071068e-001  3.000000e+000
      vertex -8.282683e+000 -9.238795e-001  3.000000e+000
    endloop
  endfacet
  facet normal  5.555696e-001  8.314700e-001  0.000000e+000
    outer loop
      vertex -8.607107e+000 -7.071068e-001  0.000000e+000
      vertex -8.282683e+000 -9.238795e-001  3.000000e+000
      vertex -8.282683e+000 -9.238795e-001  0.000000e+000
    endloop
  endfacet
  facet normal  1.950905e-001  9.807853e-001  -0.000000e+000
    outer loop
      vertex -8.282683e+000 -9.238795e-001  0.000000e+000
      vertex -8.282683e+000 -9.238795e-001  3.000000e+000
      vertex -7.900000e+000 -1.000000e+000  3.000000e+000
    endloop
  endfacet
  facet normal  1.950905e-001  9.807853e-001  0.000000e+000
    outer loop
      vertex -8.282683e+000 -9.238795e-001  0.000000e+000
      vertex -7.900000e+000 -1.000000e+000  3.000000e+000
      vertex -7.900000e+000 -1.000000e+000  0.000000e+000
    endloop
  endfacet
  facet normal  9.807854e-001  1.950901e-001  -0.000000e+000
    outer loop
      vertex -8.823879e+000 -3.826834e-001  3.000000e+000
      vertex -8.900000e+000  3.061516e-016  0.000000e+000
      vertex -8.900000e+000  3.061516e-016  3.000000e+000
    endloop
  endfacet
  facet normal  9.807854e-001 -1.950901e-001  0.000000e+000
    outer loop
      vertex -8.900000e+000  3.061516e-016  3.000000e+000
      vertex -8.900000e+000  3.061516e-016  0.000000e+000
      vertex -8.823879e+000  3.826834e-001  0.000000e+000
    endloop
  endfacet
  facet normal  9.807854e-001 -1.950901e-001  0.000000e+000
    outer loop
      vertex -8.900000e+000  3.061516e-016  3.000000e+000
      vertex -8.823879e+000  3.826834e-001  0.000000e+000
      vertex -8.823879e+000  3.826834e-001  3.000000e+000
    endloop
  endfacet
  facet normal  8.314704e-001 -5.555691e-001  0.000000e+000
    outer loop
      vertex -8.823879e+000  3.826834e-001  3.000000e+000
      vertex -8.823879e+000  3.826834e-001  0.000000e+000
      vertex -8.607107e+000  7.071068e-001  0.000000e+000
    endloop
  endfacet
  facet normal  8.314704e-001 -5.555691e-001  0.000000e+000
    outer loop
      vertex -8.823879e+000  3.826834e-001  3.000000e+000
      vertex -8.607107e+000  7.071068e-001  0.000000e+000
      vertex -8.607107e+000  7.071068e-001  3.000000e+000
    endloop
  endfacet
  facet normal  5.555696e-001 -8.314700e-001  0.000000e+000
    outer loop
      vertex -8.607107e+000  7.071068e-001  3.000000e+000
      vertex -8.607107e+000  7.071068e-001  0.000000e+000
      vertex -8.282683e+000  9.238795e-001  0.000000e+000
    endloop
  endfacet
  facet normal  5.555696e-001 -8.314700e-001  0.000000e+000
    outer loop
      vertex -8.607107e+000  7.071068e-001  3.000000e+000
      vertex -8.282683e+000  9.238795e-001  0.000000e+000
      vertex -8.282683e+000  9.238795e-001  3.000000e+000
    endloop
  endfacet
  facet normal  1.950905e-001 -9.807853e-001  0.000000e+000
    outer loop
      vertex -8.282683e+000  9.238795e-001  3.000000e+000
      vertex -8.282683e+000  9.238795e-001  0.000000e+000
      vertex -7.900000e+000  1.000000e+000  0.000000e+000
    endloop
  endfacet
  facet normal  1.950905e-001 -9.807853e-001  0.000000e+000
    outer loop
      vertex -8.282683e+000  9.238795e-001  3.000000e+000
      vertex -7.900000e+000  1.000000e+000  0.000000e+000
      vertex -7.900000e+000  1.000000e+000  3.000000e+000
    endloop
  endfacet
  facet normal  0.000000e+000  1.000000e+000  0.000000e+000
    outer loop
      vertex -7.900000e+000 -1.000000e+000  0.000000e+000
      vertex -7.900000e+000 -1.000000e+000  3.000000e+000
      vertex -4.932051e+000 -1.000000e+000  0.000000e+000
    endloop
  endfacet
  facet normal  0.000000e+000  1.000000e+000  -0.000000e+000
    outer loop
      vertex -4.932051e+000 -1.000000e+000  0.000000e+000
      vertex -7.900000e+000 -1.000000e+000  3.000000e+000
      vertex -4.932051e+000 -1.000000e+000  3.000000e+000
    endloop
  endfacet
  facet normal -5.000000e-001  8.660254e-001  0.000000e+000
    outer loop
      vertex -4.932051e+000 -1.000000e+000  0.000000e+000
      vertex -4.932051e+000 -1.000000e+000  3.000000e+000
      vertex -4.066025e+000 -5.000000e-001  0.000000e+000
    endloop
  endfacet
  facet normal -5.000000e-001  8.660254e-001  0.000000e+000
    outer loop
      vertex -4.066025e+000 -5.000000e-001  0.000000e+000
      vertex -4.932051e+000 -1.000000e+000  3.000000e+000
      vertex -4.066025e+000 -5.000000e-001  3.000000e+000
    endloop
  endfacet
  facet normal -1.305261e-001 -9.914449e-001  -0.000000e+000
    outer loop
      vertex -7.900000e+000 -2.100000e+000  0.000000e+000
      vertex -7.900000e+000 -2.100000e+000  3.000000e+000
      vertex -8.443520e+000 -2.028444e+000  0.000000e+000
    endloop
  endfacet
  facet normal -1.305261e-001 -9.914449e-001  0.000000e+000
    outer loop
      vertex -8.443520e+000 -2.028444e+000  0.000000e+000
      vertex -7.900000e+000 -2.100000e+000  3.000000e+000
      vertex -8.443520e+000 -2.028444e+000  3.000000e+000
    endloop
  endfacet
  facet normal -3.826834e-001 -9.238796e-001  -0.000000e+000
    outer loop
      vertex -8.443520e+000 -2.028444e+000  0.000000e+000
      vertex -8.443520e+000 -2.028444e+000  3.000000e+000
      vertex -8.950000e+000 -1.818653e+000  0.000000e+000
    endloop
  endfacet
  facet normal -3.826834e-001 -9.238796e-001  0.000000e+000
    outer loop
      vertex -8.950000e+000 -1.818653e+000  0.000000e+000
      vertex -8.443520e+000 -2.028444e+000  3.000000e+000
      vertex -8.950000e+000 -1.818653e+000  3.000000e+000
    endloop
  endfacet
  facet normal -6.087615e-001 -7.933532e-001  -0.000000e+000
    outer loop
      vertex -8.950000e+000 -1.818653e+000  0.000000e+000
      vertex -8.950000e+000 -1.818653e+000  3.000000e+000
      vertex -9.384924e+000 -1.484924e+000  0.000000e+000
    endloop
  endfacet
  facet normal -6.087615e-001 -7.933532e-001  0.000000e+000
    outer loop
      vertex -9.384924e+000 -1.484924e+000  0.000000e+000
      vertex -8.950000e+000 -1.818653e+000  3.000000e+000
      vertex -9.384924e+000 -1.484924e+000  3.000000e+000
    endloop
  endfacet
  facet normal -7.933527e-001 -6.087621e-001  -0.000000e+000
    outer loop
      vertex -9.384924e+000 -1.484924e+000  0.000000e+000
      vertex -9.384924e+000 -1.484924e+000  3.000000e+000
      vertex -9.718654e+000 -1.050000e+000  0.000000e+000
    endloop
  endfacet
  facet normal -7.933527e-001 -6.087621e-001  0.000000e+000
    outer loop
      vertex -9.718654e+000 -1.050000e+000  0.000000e+000
      vertex -9.384924e+000 -1.484924e+000  3.000000e+000
      vertex -9.718654e+000 -1.050000e+000  3.000000e+000
    endloop
  endfacet
  facet normal -9.238799e-001 -3.826824e-001  -0.000000e+000
    outer loop
      vertex -9.718654e+000 -1.050000e+000  0.000000e+000
      vertex -9.718654e+000 -1.050000e+000  3.000000e+000
      vertex -9.928444e+000 -5.435200e-001  0.000000e+000
    endloop
  endfacet
  facet normal -9.238799e-001 -3.826824e-001  0.000000e+000
    outer loop
      vertex -9.928444e+000 -5.435200e-001  0.000000e+000
      vertex -9.718654e+000 -1.050000e+000  3.000000e+000
      vertex -9.928444e+000 -5.435200e-001  3.000000e+000
    endloop
  endfacet
  facet normal -9.914448e-001 -1.305268e-001  -0.000000e+000
    outer loop
      vertex -9.928444e+000 -5.435200e-001  0.000000e+000
      vertex -9.928444e+000 -5.435200e-001  3.000000e+000
      vertex -1.000000e+001 -3.377100e-016  0.000000e+000
    endloop
  endfacet
  facet normal -9.914448e-001 -1.305268e-001  0.000000e+000
    outer loop
      vertex -1.000000e+001 -3.377100e-016  0.000000e+000
      vertex -9.928444e+000 -5.435200e-001  3.000000e+000
      vertex -1.000000e+001 -3.377100e-016  3.000000e+000
    endloop
  endfacet
  facet normal -9.914448e-001  1.305268e-001  0.000000e+000
    outer loop
      vertex -1.000000e+001 -3.377100e-016  0.000000e+000
      vertex -1.000000e+001 -3.377100e-016  3.000000e+000
      vertex -9.928444e+000  5.435200e-001  0.000000e+000
    endloop
  endfacet
  facet normal -9.914448e-001  1.305268e-001  0.000000e+000
    outer loop
      vertex -9.928444e+000  5.435200e-001  0.000000e+000
      vertex -1.000000e+001 -3.377100e-016  3.000000e+000
      vertex -9.928444e+000  5.435200e-001  3.000000e+000
    endloop
  endfacet
  facet normal -9.238799e-001  3.826824e-001  0.000000e+000
    outer loop
      vertex -9.928444e+000  5.435200e-001  0.000000e+000
      vertex -9.928444e+000  5.435200e-001  3.000000e+000
      vertex -9.718654e+000  1.050000e+000  0.000000e+000
    endloop
  endfacet
  facet normal -9.238799e-001  3.826824e-001  0.000000e+000
    outer loop
      vertex -9.718654e+000  1.050000e+000  0.000000e+000
      vertex -9.928444e+000  5.435200e-001  3.000000e+000
      vertex -9.718654e+000  1.050000e+000  3.000000e+000
    endloop
  endfacet
  facet normal -7.933527e-001  6.087621e-001  0.000000e+000
    outer loop
      vertex -9.718654e+000  1.050000e+000  0.000000e+000
      vertex -9.718654e+000  1.050000e+000  3.000000e+000
      vertex -9.384924e+000  1.484924e+000  0.000000e+000
    endloop
  endfacet
  facet normal -7.933527e-001  6.087621e-001  0.000000e+000
    outer loop
      vertex -9.384924e+000  1.484924e+000  0.000000e+000
      vertex -9.718654e+000  1.050000e+000  3.000000e+000
      vertex -9.384924e+000  1.484924e+000  3.000000e+000
    endloop
  endfacet
  facet normal -6.087615e-001  7.933532e-001  0.000000e+000
    outer loop
      vertex -9.384924e+000  1.484924e+000  0.000000e+000
      vertex -9.384924e+000  1.484924e+000  3.000000e+000
      vertex -8.950000e+000  1.818653e+000  0.000000e+000
    endloop
  endfacet
  facet normal -6.087615e-001  7.933532e-001  0.000000e+000
    outer loop
      vertex -8.950000e+000  1.818653e+000  0.000000e+000
      vertex -9.384924e+000  1.484924e+000  3.000000e+000
      vertex -8.950000e+000  1.818653e+000  3.000000e+000
    endloop
  endfacet
  facet normal -3.826834e-001  9.238796e-001  0.000000e+000
    outer loop
      vertex -8.950000e+000  1.818653e+000  0.000000e+000
      vertex -8.950000e+000  1.818653e+000  3.000000e+000
      vertex -8.443520e+000  2.028444e+000  0.000000e+000
    endloop
  endfacet
  facet normal -3.826834e-001  9.238796e-001  0.000000e+000
    outer loop
      vertex -8.443520e+000  2.028444e+000  0.000000e+000
      vertex -8.950000e+000  1.818653e+000  3.000000e+000
      vertex -8.443520e+000  2.028444e+000  3.000000e+000
    endloop
  endfacet
  facet normal -1.305261e-001  9.914449e-001  0.000000e+000
    outer loop
      vertex -8.443520e+000  2.028444e+000  0.000000e+000
      vertex -8.443520e+000  2.028444e+000  3.000000e+000
      vertex -7.900000e+000  2.100000e+000  0.000000e+000
    endloop
  endfacet
  facet normal -1.305261e-001  9.914449e-001  0.000000e+000
    outer loop
      vertex -7.900000e+000  2.100000e+000  0.000000e+000
      vertex -8.443520e+000  2.028444e+000  3.000000e+000
      vertex -7.900000e+000  2.100000e+000  3.000000e+000
    endloop
  endfacet
endsolid CATIA STL
