solid CATIA STL
  facet normal -2.143608e-001 -7.354387e-001  6.427904e-001
    outer loop
      vertex  1.099190e+001 -1.153675e+001  2.761649e+000
      vertex -3.090409e+000 -7.378982e+000  2.822457e+000
      vertex  5.999644e+000 -1.008164e+001  2.761649e+000
    endloop
  endfacet
  facet normal -2.143624e-001 -7.354406e-001  6.427875e-001
    outer loop
      vertex  4.751579e+000 -9.717859e+000  2.761649e+000
      vertex  4.639647e+000 -1.010188e+001  2.284948e+000
      vertex  4.927662e+000 -1.018583e+001  2.284948e+000
    endloop
  endfacet
  facet normal -2.143617e-001 -7.354407e-001  6.427878e-001
    outer loop
      vertex  4.751579e+000 -9.717859e+000  2.761649e+000
      vertex  4.927662e+000 -1.018583e+001  2.284948e+000
      vertex  5.999644e+000 -1.008164e+001  2.761649e+000
    endloop
  endfacet
  facet normal -2.143677e-001 -7.354614e-001  6.427621e-001
    outer loop
      vertex  4.751579e+000 -9.717859e+000  2.761649e+000
      vertex  5.999644e+000 -1.008164e+001  2.761649e+000
      vertex -3.090409e+000 -7.378982e+000  2.822457e+000
    endloop
  endfacet
  facet normal -2.143613e-001 -7.354404e-001  6.427882e-001
    outer loop
      vertex  4.751579e+000 -9.717859e+000  2.761649e+000
      vertex -3.090409e+000 -7.378982e+000  2.822457e+000
      vertex -2.238632e+000 -7.680399e+000  2.761649e+000
    endloop
  endfacet
  facet normal -2.143613e-001 -7.354404e-001  6.427882e-001
    outer loop
      vertex -3.889288e+000 -6.990954e+000  3.000000e+000
      vertex -3.090409e+000 -7.378982e+000  2.822457e+000
      vertex  1.099190e+001 -1.153675e+001  2.761649e+000
    endloop
  endfacet
  facet normal -2.143635e-001 -7.354470e-001  6.427800e-001
    outer loop
      vertex -3.889288e+000 -6.990954e+000  3.000000e+000
      vertex  1.099190e+001 -1.153675e+001  2.761649e+000
      vertex  1.223997e+001 -1.190053e+001  2.761649e+000
    endloop
  endfacet
  facet normal -2.143611e-001 -7.354397e-001  6.427890e-001
    outer loop
      vertex -3.889288e+000 -6.990954e+000  3.000000e+000
      vertex  1.223997e+001 -1.190053e+001  2.761649e+000
      vertex  1.723223e+001 -1.335564e+001  2.761649e+000
    endloop
  endfacet
  facet normal -2.143663e-001 -7.354562e-001  6.427685e-001
    outer loop
      vertex -3.889288e+000 -6.990954e+000  3.000000e+000
      vertex  1.723223e+001 -1.335564e+001  2.761649e+000
      vertex  1.848029e+001 -1.371941e+001  2.761649e+000
    endloop
  endfacet
  facet normal -2.143591e-001 -7.354332e-001  6.427972e-001
    outer loop
      vertex -3.889288e+000 -6.990954e+000  3.000000e+000
      vertex  1.848029e+001 -1.371941e+001  2.761649e+000
      vertex  1.944034e+001 -1.399924e+001  2.761649e+000
    endloop
  endfacet
  facet normal -2.143615e-001 -7.354409e-001  6.427875e-001
    outer loop
      vertex -3.889288e+000 -6.990954e+000  3.000000e+000
      vertex  1.944034e+001 -1.399924e+001  2.761649e+000
      vertex  1.949631e+001 -1.380723e+001  3.000000e+000
    endloop
  endfacet
  facet normal -2.143617e-001 -7.354405e-001  6.427879e-001
    outer loop
      vertex  1.848029e+001 -1.371941e+001  2.761649e+000
      vertex  1.723223e+001 -1.335564e+001  2.761649e+000
      vertex  1.740831e+001 -1.382361e+001  2.284948e+000
    endloop
  endfacet
  facet normal -2.143635e-001 -7.354406e-001  6.427873e-001
    outer loop
      vertex  1.740831e+001 -1.382361e+001  2.284948e+000
      vertex  1.723223e+001 -1.335564e+001  2.761649e+000
      vertex  1.712030e+001 -1.373966e+001  2.284948e+000
    endloop
  endfacet
  facet normal -2.143616e-001 -7.354407e-001  6.427877e-001
    outer loop
      vertex  1.223997e+001 -1.190053e+001  2.761649e+000
      vertex  1.099190e+001 -1.153675e+001  2.761649e+000
      vertex  1.116799e+001 -1.200472e+001  2.284948e+000
    endloop
  endfacet
  facet normal -2.143621e-001 -7.354408e-001  6.427876e-001
    outer loop
      vertex  1.116799e+001 -1.200472e+001  2.284948e+000
      vertex  1.099190e+001 -1.153675e+001  2.761649e+000
      vertex  1.087997e+001 -1.192077e+001  2.284948e+000
    endloop
  endfacet
  facet normal -2.143614e-001 -7.354410e-001 -6.427875e-001
    outer loop
      vertex  4.751579e+000 -9.717859e+000  2.383507e-001
      vertex -2.238632e+000 -7.680399e+000  2.383507e-001
      vertex -3.090409e+000 -7.378982e+000  1.775427e-001
    endloop
  endfacet
  facet normal -2.143661e-001 -7.354562e-001 -6.427686e-001
    outer loop
      vertex  4.751579e+000 -9.717859e+000  2.383507e-001
      vertex -3.090409e+000 -7.378982e+000  1.775427e-001
      vertex  5.999644e+000 -1.008164e+001  2.383507e-001
    endloop
  endfacet
  facet normal -2.143617e-001 -7.354406e-001 -6.427879e-001
    outer loop
      vertex  4.751579e+000 -9.717859e+000  2.383507e-001
      vertex  5.999644e+000 -1.008164e+001  2.383507e-001
      vertex  4.927662e+000 -1.018583e+001  7.150521e-001
    endloop
  endfacet
  facet normal -2.143624e-001 -7.354406e-001 -6.427876e-001
    outer loop
      vertex  4.751579e+000 -9.717859e+000  2.383507e-001
      vertex  4.927662e+000 -1.018583e+001  7.150521e-001
      vertex  4.639647e+000 -1.010188e+001  7.150521e-001
    endloop
  endfacet
  facet normal -2.143615e-001 -7.354411e-001 -6.427873e-001
    outer loop
      vertex -3.889288e+000 -6.990954e+000 -8.881784e-016
      vertex  1.949631e+001 -1.380723e+001  0.000000e+000
      vertex  1.944034e+001 -1.399924e+001  2.383507e-001
    endloop
  endfacet
  facet normal -2.143591e-001 -7.354333e-001 -6.427971e-001
    outer loop
      vertex -3.889288e+000 -6.990954e+000 -8.881784e-016
      vertex  1.944034e+001 -1.399924e+001  2.383507e-001
      vertex  1.848029e+001 -1.371941e+001  2.383507e-001
    endloop
  endfacet
  facet normal -2.143663e-001 -7.354563e-001 -6.427684e-001
    outer loop
      vertex -3.889288e+000 -6.990954e+000 -8.881784e-016
      vertex  1.848029e+001 -1.371941e+001  2.383507e-001
      vertex  1.723223e+001 -1.335564e+001  2.383507e-001
    endloop
  endfacet
  facet normal -2.143610e-001 -7.354395e-001 -6.427894e-001
    outer loop
      vertex -3.889288e+000 -6.990954e+000 -8.881784e-016
      vertex  1.723223e+001 -1.335564e+001  2.383507e-001
      vertex  1.223997e+001 -1.190053e+001  2.383507e-001
    endloop
  endfacet
  facet normal -2.143636e-001 -7.354475e-001 -6.427793e-001
    outer loop
      vertex -3.889288e+000 -6.990954e+000 -8.881784e-016
      vertex  1.223997e+001 -1.190053e+001  2.383507e-001
      vertex  1.099190e+001 -1.153675e+001  2.383507e-001
    endloop
  endfacet
  facet normal -2.143610e-001 -7.354394e-001 -6.427894e-001
    outer loop
      vertex -3.889288e+000 -6.990954e+000 -8.881784e-016
      vertex  1.099190e+001 -1.153675e+001  2.383507e-001
      vertex  5.999644e+000 -1.008164e+001  2.383507e-001
    endloop
  endfacet
  facet normal -2.143613e-001 -7.354404e-001 -6.427883e-001
    outer loop
      vertex -3.889288e+000 -6.990954e+000 -8.881784e-016
      vertex  5.999644e+000 -1.008164e+001  2.383507e-001
      vertex -3.090409e+000 -7.378982e+000  1.775427e-001
    endloop
  endfacet
  facet normal -2.143635e-001 -7.354406e-001 -6.427874e-001
    outer loop
      vertex  1.712030e+001 -1.373966e+001  7.150521e-001
      vertex  1.723223e+001 -1.335564e+001  2.383507e-001
      vertex  1.740831e+001 -1.382361e+001  7.150521e-001
    endloop
  endfacet
  facet normal -2.143617e-001 -7.354404e-001 -6.427879e-001
    outer loop
      vertex  1.740831e+001 -1.382361e+001  7.150521e-001
      vertex  1.723223e+001 -1.335564e+001  2.383507e-001
      vertex  1.848029e+001 -1.371941e+001  2.383507e-001
    endloop
  endfacet
  facet normal -2.143621e-001 -7.354407e-001 -6.427876e-001
    outer loop
      vertex  1.087997e+001 -1.192077e+001  7.150521e-001
      vertex  1.099190e+001 -1.153675e+001  2.383507e-001
      vertex  1.116799e+001 -1.200472e+001  7.150521e-001
    endloop
  endfacet
  facet normal -2.143616e-001 -7.354407e-001 -6.427878e-001
    outer loop
      vertex  1.116799e+001 -1.200472e+001  7.150521e-001
      vertex  1.099190e+001 -1.153675e+001  2.383507e-001
      vertex  1.223997e+001 -1.190053e+001  2.383507e-001
    endloop
  endfacet
  facet normal -9.600497e-001  2.798295e-001  0.000000e+000
    outer loop
      vertex  4.639647e+000 -1.010188e+001  2.284948e+000
      vertex  4.751579e+000 -9.717859e+000  2.761649e+000
      vertex  4.639647e+000 -1.010188e+001  7.150521e-001
    endloop
  endfacet
  facet normal -9.600497e-001  2.798295e-001  0.000000e+000
    outer loop
      vertex  4.639647e+000 -1.010188e+001  7.150521e-001
      vertex  4.751579e+000 -9.717859e+000  2.761649e+000
      vertex  4.751579e+000 -9.717859e+000  2.383507e-001
    endloop
  endfacet
  facet normal -2.798303e-001 -9.600495e-001  0.000000e+000
    outer loop
      vertex  4.927662e+000 -1.018583e+001  2.284948e+000
      vertex  4.639647e+000 -1.010188e+001  2.284948e+000
      vertex  4.927662e+000 -1.018583e+001  7.150521e-001
    endloop
  endfacet
  facet normal -2.798303e-001 -9.600495e-001  0.000000e+000
    outer loop
      vertex  4.927662e+000 -1.018583e+001  7.150521e-001
      vertex  4.639647e+000 -1.010188e+001  2.284948e+000
      vertex  4.639647e+000 -1.010188e+001  7.150521e-001
    endloop
  endfacet
  facet normal -2.798290e-001 -9.600499e-001  0.000000e+000
    outer loop
      vertex -2.238632e+000 -7.680399e+000  2.761649e+000
      vertex -2.238632e+000 -7.680399e+000  2.383507e-001
      vertex  4.751579e+000 -9.717859e+000  2.761649e+000
    endloop
  endfacet
  facet normal -2.798290e-001 -9.600499e-001  -0.000000e+000
    outer loop
      vertex  4.751579e+000 -9.717859e+000  2.761649e+000
      vertex -2.238632e+000 -7.680399e+000  2.383507e-001
      vertex  4.751579e+000 -9.717859e+000  2.383507e-001
    endloop
  endfacet
  facet normal  9.673876e-002 -9.953098e-001  0.000000e+000
    outer loop
      vertex  5.999644e+000 -1.008164e+001  2.761649e+000
      vertex  4.927662e+000 -1.018583e+001  2.284948e+000
      vertex  5.999644e+000 -1.008164e+001  2.383507e-001
    endloop
  endfacet
  facet normal  9.673876e-002 -9.953098e-001  0.000000e+000
    outer loop
      vertex  5.999644e+000 -1.008164e+001  2.383507e-001
      vertex  4.927662e+000 -1.018583e+001  2.284948e+000
      vertex  4.927662e+000 -1.018583e+001  7.150521e-001
    endloop
  endfacet
  facet normal -9.600497e-001  2.798295e-001  0.000000e+000
    outer loop
      vertex  1.087997e+001 -1.192077e+001  2.284948e+000
      vertex  1.099190e+001 -1.153675e+001  2.761649e+000
      vertex  1.087997e+001 -1.192077e+001  7.150521e-001
    endloop
  endfacet
  facet normal -9.600497e-001  2.798295e-001  0.000000e+000
    outer loop
      vertex  1.087997e+001 -1.192077e+001  7.150521e-001
      vertex  1.099190e+001 -1.153675e+001  2.761649e+000
      vertex  1.099190e+001 -1.153675e+001  2.383507e-001
    endloop
  endfacet
  facet normal -2.798299e-001 -9.600497e-001  0.000000e+000
    outer loop
      vertex  1.116799e+001 -1.200472e+001  2.284948e+000
      vertex  1.087997e+001 -1.192077e+001  2.284948e+000
      vertex  1.116799e+001 -1.200472e+001  7.150521e-001
    endloop
  endfacet
  facet normal -2.798299e-001 -9.600497e-001  0.000000e+000
    outer loop
      vertex  1.116799e+001 -1.200472e+001  7.150521e-001
      vertex  1.087997e+001 -1.192077e+001  2.284948e+000
      vertex  1.087997e+001 -1.192077e+001  7.150521e-001
    endloop
  endfacet
  facet normal -2.798289e-001 -9.600499e-001  0.000000e+000
    outer loop
      vertex  5.999644e+000 -1.008164e+001  2.761649e+000
      vertex  5.999644e+000 -1.008164e+001  2.383507e-001
      vertex  1.099190e+001 -1.153675e+001  2.761649e+000
    endloop
  endfacet
  facet normal -2.798289e-001 -9.600499e-001  -0.000000e+000
    outer loop
      vertex  1.099190e+001 -1.153675e+001  2.761649e+000
      vertex  5.999644e+000 -1.008164e+001  2.383507e-001
      vertex  1.099190e+001 -1.153675e+001  2.383507e-001
    endloop
  endfacet
  facet normal  9.673876e-002 -9.953098e-001  0.000000e+000
    outer loop
      vertex  1.223997e+001 -1.190053e+001  2.761649e+000
      vertex  1.116799e+001 -1.200472e+001  2.284948e+000
      vertex  1.223997e+001 -1.190053e+001  2.383507e-001
    endloop
  endfacet
  facet normal  9.673876e-002 -9.953098e-001  0.000000e+000
    outer loop
      vertex  1.223997e+001 -1.190053e+001  2.383507e-001
      vertex  1.116799e+001 -1.200472e+001  2.284948e+000
      vertex  1.116799e+001 -1.200472e+001  7.150521e-001
    endloop
  endfacet
  facet normal -9.600503e-001  2.798273e-001  0.000000e+000
    outer loop
      vertex  1.712030e+001 -1.373966e+001  2.284948e+000
      vertex  1.723223e+001 -1.335564e+001  2.761649e+000
      vertex  1.712030e+001 -1.373966e+001  7.150521e-001
    endloop
  endfacet
  facet normal -9.600503e-001  2.798273e-001  0.000000e+000
    outer loop
      vertex  1.712030e+001 -1.373966e+001  7.150521e-001
      vertex  1.723223e+001 -1.335564e+001  2.761649e+000
      vertex  1.723223e+001 -1.335564e+001  2.383507e-001
    endloop
  endfacet
  facet normal -2.798316e-001 -9.600491e-001  0.000000e+000
    outer loop
      vertex  1.712030e+001 -1.373966e+001  2.284948e+000
      vertex  1.712030e+001 -1.373966e+001  7.150521e-001
      vertex  1.740831e+001 -1.382361e+001  2.284948e+000
    endloop
  endfacet
  facet normal -2.798316e-001 -9.600491e-001  -0.000000e+000
    outer loop
      vertex  1.740831e+001 -1.382361e+001  2.284948e+000
      vertex  1.712030e+001 -1.373966e+001  7.150521e-001
      vertex  1.740831e+001 -1.382361e+001  7.150521e-001
    endloop
  endfacet
  facet normal -2.798290e-001 -9.600499e-001  0.000000e+000
    outer loop
      vertex  1.223997e+001 -1.190053e+001  2.761649e+000
      vertex  1.223997e+001 -1.190053e+001  2.383507e-001
      vertex  1.723223e+001 -1.335564e+001  2.761649e+000
    endloop
  endfacet
  facet normal -2.798290e-001 -9.600499e-001  -0.000000e+000
    outer loop
      vertex  1.723223e+001 -1.335564e+001  2.761649e+000
      vertex  1.223997e+001 -1.190053e+001  2.383507e-001
      vertex  1.723223e+001 -1.335564e+001  2.383507e-001
    endloop
  endfacet
  facet normal  9.673876e-002 -9.953098e-001  0.000000e+000
    outer loop
      vertex  1.848029e+001 -1.371941e+001  2.761649e+000
      vertex  1.740831e+001 -1.382361e+001  2.284948e+000
      vertex  1.848029e+001 -1.371941e+001  2.383507e-001
    endloop
  endfacet
  facet normal  9.673876e-002 -9.953098e-001  0.000000e+000
    outer loop
      vertex  1.848029e+001 -1.371941e+001  2.383507e-001
      vertex  1.740831e+001 -1.382361e+001  2.284948e+000
      vertex  1.740831e+001 -1.382361e+001  7.150521e-001
    endloop
  endfacet
  facet normal -2.143624e-001  7.354406e-001 -6.427876e-001
    outer loop
      vertex  4.751579e+000  9.717859e+000  2.383507e-001
      vertex  4.639647e+000  1.010188e+001  7.150521e-001
      vertex  4.927662e+000  1.018583e+001  7.150521e-001
    endloop
  endfacet
  facet normal -2.143617e-001  7.354406e-001 -6.427879e-001
    outer loop
      vertex  4.751579e+000  9.717859e+000  2.383507e-001
      vertex  4.927662e+000  1.018583e+001  7.150521e-001
      vertex  5.999644e+000  1.008164e+001  2.383507e-001
    endloop
  endfacet
  facet normal -2.143679e-001  7.354620e-001 -6.427613e-001
    outer loop
      vertex  4.751579e+000  9.717859e+000  2.383507e-001
      vertex  5.999644e+000  1.008164e+001  2.383507e-001
      vertex -3.090409e+000  7.378982e+000  1.775427e-001
    endloop
  endfacet
  facet normal -2.143615e-001  7.354410e-001 -6.427875e-001
    outer loop
      vertex  4.751579e+000  9.717859e+000  2.383507e-001
      vertex -3.090409e+000  7.378982e+000  1.775427e-001
      vertex -2.238632e+000  7.680399e+000  2.383507e-001
    endloop
  endfacet
  facet normal -2.143613e-001  7.354404e-001 -6.427883e-001
    outer loop
      vertex -3.889288e+000  6.990954e+000 -2.220446e-016
      vertex -3.090409e+000  7.378982e+000  1.775427e-001
      vertex  5.999644e+000  1.008164e+001  2.383507e-001
    endloop
  endfacet
  facet normal -2.143610e-001  7.354396e-001 -6.427891e-001
    outer loop
      vertex -3.889288e+000  6.990954e+000 -2.220446e-016
      vertex  5.999644e+000  1.008164e+001  2.383507e-001
      vertex  1.099190e+001  1.153675e+001  2.383507e-001
    endloop
  endfacet
  facet normal -2.143635e-001  7.354471e-001 -6.427798e-001
    outer loop
      vertex -3.889288e+000  6.990954e+000 -2.220446e-016
      vertex  1.099190e+001  1.153675e+001  2.383507e-001
      vertex  1.223997e+001  1.190053e+001  2.383507e-001
    endloop
  endfacet
  facet normal -2.143611e-001  7.354399e-001 -6.427889e-001
    outer loop
      vertex -3.889288e+000  6.990954e+000 -2.220446e-016
      vertex  1.223997e+001  1.190053e+001  2.383507e-001
      vertex  1.723223e+001  1.335564e+001  2.383507e-001
    endloop
  endfacet
  facet normal -2.143663e-001  7.354563e-001 -6.427684e-001
    outer loop
      vertex -3.889288e+000  6.990954e+000 -2.220446e-016
      vertex  1.723223e+001  1.335564e+001  2.383507e-001
      vertex  1.848029e+001  1.371941e+001  2.383507e-001
    endloop
  endfacet
  facet normal -2.143591e-001  7.354333e-001 -6.427971e-001
    outer loop
      vertex -3.889288e+000  6.990954e+000 -2.220446e-016
      vertex  1.848029e+001  1.371941e+001  2.383507e-001
      vertex  1.944034e+001  1.399924e+001  2.383507e-001
    endloop
  endfacet
  facet normal -2.143615e-001  7.354411e-001 -6.427873e-001
    outer loop
      vertex -3.889288e+000  6.990954e+000 -2.220446e-016
      vertex  1.944034e+001  1.399924e+001  2.383507e-001
      vertex  1.949631e+001  1.380723e+001  0.000000e+000
    endloop
  endfacet
  facet normal -2.143635e-001  7.354406e-001 -6.427874e-001
    outer loop
      vertex  1.712030e+001  1.373966e+001  7.150521e-001
      vertex  1.740831e+001  1.382361e+001  7.150521e-001
      vertex  1.723223e+001  1.335564e+001  2.383507e-001
    endloop
  endfacet
  facet normal -2.143617e-001  7.354404e-001 -6.427879e-001
    outer loop
      vertex  1.723223e+001  1.335564e+001  2.383507e-001
      vertex  1.740831e+001  1.382361e+001  7.150521e-001
      vertex  1.848029e+001  1.371941e+001  2.383507e-001
    endloop
  endfacet
  facet normal -2.143621e-001  7.354407e-001 -6.427876e-001
    outer loop
      vertex  1.087997e+001  1.192077e+001  7.150521e-001
      vertex  1.116799e+001  1.200472e+001  7.150521e-001
      vertex  1.099190e+001  1.153675e+001  2.383507e-001
    endloop
  endfacet
  facet normal -2.143616e-001  7.354407e-001 -6.427878e-001
    outer loop
      vertex  1.099190e+001  1.153675e+001  2.383507e-001
      vertex  1.116799e+001  1.200472e+001  7.150521e-001
      vertex  1.223997e+001  1.190053e+001  2.383507e-001
    endloop
  endfacet
  facet normal -2.143608e-001  7.354387e-001  6.427904e-001
    outer loop
      vertex  5.999644e+000  1.008164e+001  2.761649e+000
      vertex -3.090409e+000  7.378982e+000  2.822457e+000
      vertex  1.099190e+001  1.153675e+001  2.761649e+000
    endloop
  endfacet
  facet normal -2.143613e-001  7.354404e-001  6.427882e-001
    outer loop
      vertex  4.751579e+000  9.717859e+000  2.761649e+000
      vertex -2.238632e+000  7.680399e+000  2.761649e+000
      vertex -3.090409e+000  7.378982e+000  2.822457e+000
    endloop
  endfacet
  facet normal -2.143660e-001  7.354556e-001  6.427693e-001
    outer loop
      vertex  4.751579e+000  9.717859e+000  2.761649e+000
      vertex -3.090409e+000  7.378982e+000  2.822457e+000
      vertex  5.999644e+000  1.008164e+001  2.761649e+000
    endloop
  endfacet
  facet normal -2.143617e-001  7.354407e-001  6.427878e-001
    outer loop
      vertex  4.751579e+000  9.717859e+000  2.761649e+000
      vertex  5.999644e+000  1.008164e+001  2.761649e+000
      vertex  4.927662e+000  1.018583e+001  2.284948e+000
    endloop
  endfacet
  facet normal -2.143624e-001  7.354406e-001  6.427875e-001
    outer loop
      vertex  4.751579e+000  9.717859e+000  2.761649e+000
      vertex  4.927662e+000  1.018583e+001  2.284948e+000
      vertex  4.639647e+000  1.010188e+001  2.284948e+000
    endloop
  endfacet
  facet normal -2.143615e-001  7.354409e-001  6.427875e-001
    outer loop
      vertex -3.889288e+000  6.990954e+000  3.000000e+000
      vertex  1.949631e+001  1.380723e+001  3.000000e+000
      vertex  1.944034e+001  1.399924e+001  2.761649e+000
    endloop
  endfacet
  facet normal -2.143591e-001  7.354332e-001  6.427972e-001
    outer loop
      vertex -3.889288e+000  6.990954e+000  3.000000e+000
      vertex  1.944034e+001  1.399924e+001  2.761649e+000
      vertex  1.848029e+001  1.371941e+001  2.761649e+000
    endloop
  endfacet
  facet normal -2.143663e-001  7.354562e-001  6.427685e-001
    outer loop
      vertex -3.889288e+000  6.990954e+000  3.000000e+000
      vertex  1.848029e+001  1.371941e+001  2.761649e+000
      vertex  1.723223e+001  1.335564e+001  2.761649e+000
    endloop
  endfacet
  facet normal -2.143610e-001  7.354393e-001  6.427895e-001
    outer loop
      vertex -3.889288e+000  6.990954e+000  3.000000e+000
      vertex  1.723223e+001  1.335564e+001  2.761649e+000
      vertex  1.223997e+001  1.190053e+001  2.761649e+000
    endloop
  endfacet
  facet normal -2.143636e-001  7.354474e-001  6.427795e-001
    outer loop
      vertex -3.889288e+000  6.990954e+000  3.000000e+000
      vertex  1.223997e+001  1.190053e+001  2.761649e+000
      vertex  1.099190e+001  1.153675e+001  2.761649e+000
    endloop
  endfacet
  facet normal -2.143613e-001  7.354404e-001  6.427882e-001
    outer loop
      vertex -3.889288e+000  6.990954e+000  3.000000e+000
      vertex  1.099190e+001  1.153675e+001  2.761649e+000
      vertex -3.090409e+000  7.378982e+000  2.822457e+000
    endloop
  endfacet
  facet normal -2.143617e-001  7.354405e-001  6.427879e-001
    outer loop
      vertex  1.848029e+001  1.371941e+001  2.761649e+000
      vertex  1.740831e+001  1.382361e+001  2.284948e+000
      vertex  1.723223e+001  1.335564e+001  2.761649e+000
    endloop
  endfacet
  facet normal -2.143635e-001  7.354406e-001  6.427873e-001
    outer loop
      vertex  1.723223e+001  1.335564e+001  2.761649e+000
      vertex  1.740831e+001  1.382361e+001  2.284948e+000
      vertex  1.712030e+001  1.373966e+001  2.284948e+000
    endloop
  endfacet
  facet normal -2.143616e-001  7.354407e-001  6.427877e-001
    outer loop
      vertex  1.223997e+001  1.190053e+001  2.761649e+000
      vertex  1.116799e+001  1.200472e+001  2.284948e+000
      vertex  1.099190e+001  1.153675e+001  2.761649e+000
    endloop
  endfacet
  facet normal -2.143621e-001  7.354408e-001  6.427876e-001
    outer loop
      vertex  1.099190e+001  1.153675e+001  2.761649e+000
      vertex  1.116799e+001  1.200472e+001  2.284948e+000
      vertex  1.087997e+001  1.192077e+001  2.284948e+000
    endloop
  endfacet
  facet normal -9.600497e-001 -2.798295e-001  0.000000e+000
    outer loop
      vertex  4.751579e+000  9.717859e+000  2.761649e+000
      vertex  4.639647e+000  1.010188e+001  2.284948e+000
      vertex  4.751579e+000  9.717859e+000  2.383507e-001
    endloop
  endfacet
  facet normal -9.600497e-001 -2.798295e-001  0.000000e+000
    outer loop
      vertex  4.751579e+000  9.717859e+000  2.383507e-001
      vertex  4.639647e+000  1.010188e+001  2.284948e+000
      vertex  4.639647e+000  1.010188e+001  7.150521e-001
    endloop
  endfacet
  facet normal -2.798303e-001  9.600495e-001  0.000000e+000
    outer loop
      vertex  4.927662e+000  1.018583e+001  2.284948e+000
      vertex  4.927662e+000  1.018583e+001  7.150521e-001
      vertex  4.639647e+000  1.010188e+001  2.284948e+000
    endloop
  endfacet
  facet normal -2.798303e-001  9.600495e-001  0.000000e+000
    outer loop
      vertex  4.639647e+000  1.010188e+001  2.284948e+000
      vertex  4.927662e+000  1.018583e+001  7.150521e-001
      vertex  4.639647e+000  1.010188e+001  7.150521e-001
    endloop
  endfacet
  facet normal -2.798290e-001  9.600499e-001  0.000000e+000
    outer loop
      vertex -2.238632e+000  7.680399e+000  2.761649e+000
      vertex  4.751579e+000  9.717859e+000  2.761649e+000
      vertex -2.238632e+000  7.680399e+000  2.383507e-001
    endloop
  endfacet
  facet normal -2.798290e-001  9.600499e-001  0.000000e+000
    outer loop
      vertex -2.238632e+000  7.680399e+000  2.383507e-001
      vertex  4.751579e+000  9.717859e+000  2.761649e+000
      vertex  4.751579e+000  9.717859e+000  2.383507e-001
    endloop
  endfacet
  facet normal  9.673876e-002  9.953098e-001  0.000000e+000
    outer loop
      vertex  4.927662e+000  1.018583e+001  2.284948e+000
      vertex  5.999644e+000  1.008164e+001  2.761649e+000
      vertex  4.927662e+000  1.018583e+001  7.150521e-001
    endloop
  endfacet
  facet normal  9.673876e-002  9.953098e-001  0.000000e+000
    outer loop
      vertex  4.927662e+000  1.018583e+001  7.150521e-001
      vertex  5.999644e+000  1.008164e+001  2.761649e+000
      vertex  5.999644e+000  1.008164e+001  2.383507e-001
    endloop
  endfacet
  facet normal -9.600497e-001 -2.798295e-001  0.000000e+000
    outer loop
      vertex  1.099190e+001  1.153675e+001  2.761649e+000
      vertex  1.087997e+001  1.192077e+001  2.284948e+000
      vertex  1.099190e+001  1.153675e+001  2.383507e-001
    endloop
  endfacet
  facet normal -9.600497e-001 -2.798295e-001  0.000000e+000
    outer loop
      vertex  1.099190e+001  1.153675e+001  2.383507e-001
      vertex  1.087997e+001  1.192077e+001  2.284948e+000
      vertex  1.087997e+001  1.192077e+001  7.150521e-001
    endloop
  endfacet
  facet normal -2.798299e-001  9.600497e-001  0.000000e+000
    outer loop
      vertex  1.116799e+001  1.200472e+001  2.284948e+000
      vertex  1.116799e+001  1.200472e+001  7.150521e-001
      vertex  1.087997e+001  1.192077e+001  2.284948e+000
    endloop
  endfacet
  facet normal -2.798299e-001  9.600497e-001  0.000000e+000
    outer loop
      vertex  1.087997e+001  1.192077e+001  2.284948e+000
      vertex  1.116799e+001  1.200472e+001  7.150521e-001
      vertex  1.087997e+001  1.192077e+001  7.150521e-001
    endloop
  endfacet
  facet normal -2.798289e-001  9.600499e-001  0.000000e+000
    outer loop
      vertex  5.999644e+000  1.008164e+001  2.761649e+000
      vertex  1.099190e+001  1.153675e+001  2.761649e+000
      vertex  5.999644e+000  1.008164e+001  2.383507e-001
    endloop
  endfacet
  facet normal -2.798289e-001  9.600499e-001  0.000000e+000
    outer loop
      vertex  5.999644e+000  1.008164e+001  2.383507e-001
      vertex  1.099190e+001  1.153675e+001  2.761649e+000
      vertex  1.099190e+001  1.153675e+001  2.383507e-001
    endloop
  endfacet
  facet normal  9.673876e-002  9.953098e-001  0.000000e+000
    outer loop
      vertex  1.116799e+001  1.200472e+001  2.284948e+000
      vertex  1.223997e+001  1.190053e+001  2.761649e+000
      vertex  1.116799e+001  1.200472e+001  7.150521e-001
    endloop
  endfacet
  facet normal  9.673876e-002  9.953098e-001  0.000000e+000
    outer loop
      vertex  1.116799e+001  1.200472e+001  7.150521e-001
      vertex  1.223997e+001  1.190053e+001  2.761649e+000
      vertex  1.223997e+001  1.190053e+001  2.383507e-001
    endloop
  endfacet
  facet normal -9.600503e-001 -2.798273e-001  0.000000e+000
    outer loop
      vertex  1.723223e+001  1.335564e+001  2.761649e+000
      vertex  1.712030e+001  1.373966e+001  2.284948e+000
      vertex  1.723223e+001  1.335564e+001  2.383507e-001
    endloop
  endfacet
  facet normal -9.600503e-001 -2.798273e-001  0.000000e+000
    outer loop
      vertex  1.723223e+001  1.335564e+001  2.383507e-001
      vertex  1.712030e+001  1.373966e+001  2.284948e+000
      vertex  1.712030e+001  1.373966e+001  7.150521e-001
    endloop
  endfacet
  facet normal -2.798316e-001  9.600491e-001  0.000000e+000
    outer loop
      vertex  1.712030e+001  1.373966e+001  2.284948e+000
      vertex  1.740831e+001  1.382361e+001  2.284948e+000
      vertex  1.712030e+001  1.373966e+001  7.150521e-001
    endloop
  endfacet
  facet normal -2.798316e-001  9.600491e-001  0.000000e+000
    outer loop
      vertex  1.712030e+001  1.373966e+001  7.150521e-001
      vertex  1.740831e+001  1.382361e+001  2.284948e+000
      vertex  1.740831e+001  1.382361e+001  7.150521e-001
    endloop
  endfacet
  facet normal -2.798290e-001  9.600499e-001  0.000000e+000
    outer loop
      vertex  1.223997e+001  1.190053e+001  2.761649e+000
      vertex  1.723223e+001  1.335564e+001  2.761649e+000
      vertex  1.223997e+001  1.190053e+001  2.383507e-001
    endloop
  endfacet
  facet normal -2.798290e-001  9.600499e-001  0.000000e+000
    outer loop
      vertex  1.223997e+001  1.190053e+001  2.383507e-001
      vertex  1.723223e+001  1.335564e+001  2.761649e+000
      vertex  1.723223e+001  1.335564e+001  2.383507e-001
    endloop
  endfacet
  facet normal  9.673876e-002  9.953098e-001  0.000000e+000
    outer loop
      vertex  1.740831e+001  1.382361e+001  2.284948e+000
      vertex  1.848029e+001  1.371941e+001  2.761649e+000
      vertex  1.740831e+001  1.382361e+001  7.150521e-001
    endloop
  endfacet
  facet normal  9.673876e-002  9.953098e-001  0.000000e+000
    outer loop
      vertex  1.740831e+001  1.382361e+001  7.150521e-001
      vertex  1.848029e+001  1.371941e+001  2.761649e+000
      vertex  1.848029e+001  1.371941e+001  2.383507e-001
    endloop
  endfacet
  facet normal  -0.000000e+000  -0.000000e+000 -9.999999e-001
    outer loop
      vertex -5.314490e+000 -2.784995e+000  0.000000e+000
      vertex -4.799679e+000 -3.600427e+000  0.000000e+000
      vertex -4.781281e+000 -6.413997e+000  0.000000e+000
    endloop
  endfacet
  facet normal  0.000000e+000  0.000000e+000 -9.999999e-001
    outer loop
      vertex  2.000000e+001 -1.207914e+001  0.000000e+000
      vertex  1.949631e+001 -1.380723e+001  0.000000e+000
      vertex -1.678974e+000 -5.760299e+000  0.000000e+000
    endloop
  endfacet
  facet normal  0.000000e+000  -0.000000e+000 -1.000000e+000
    outer loop
      vertex -8.000000e+000  4.042556e-015  0.000000e+000
      vertex -7.929467e+000  1.059979e+000  0.000000e+000
      vertex -7.929467e+000 -1.059979e+000  0.000000e+000
    endloop
  endfacet
  facet normal  0.000000e+000  0.000000e+000 -1.000000e+000
    outer loop
      vertex -5.922503e+000  9.612253e-001  0.000000e+000
      vertex -6.000000e+000  3.673819e-016  0.000000e+000
      vertex -6.298095e+000  4.932951e+000  0.000000e+000
    endloop
  endfacet
  facet normal  0.000000e+000  0.000000e+000 -1.000000e+000
    outer loop
      vertex  2.000000e+001  1.207914e+001  0.000000e+000
      vertex -1.678974e+000  5.760299e+000  0.000000e+000
      vertex  1.949631e+001  1.380723e+001  0.000000e+000
    endloop
  endfacet
  facet normal -9.999539e-016 -6.538994e-018 -1.000000e+000
    outer loop
      vertex -3.889288e+000 -6.990954e+000 -8.881784e-016
      vertex -4.781281e+000 -6.413997e+000  0.000000e+000
      vertex -4.799679e+000 -3.600427e+000  0.000000e+000
    endloop
  endfacet
  facet normal  4.254450e-016  3.761952e-016 -1.000000e+000
    outer loop
      vertex -3.889288e+000 -6.990954e+000 -8.881784e-016
      vertex -4.799679e+000 -3.600427e+000  0.000000e+000
      vertex -4.160882e+000 -4.322853e+000  0.000000e+000
    endloop
  endfacet
  facet normal  2.971939e-016  3.631401e-016 -1.000000e+000
    outer loop
      vertex -3.889288e+000 -6.990954e+000 -8.881784e-016
      vertex -4.160882e+000 -4.322853e+000  0.000000e+000
      vertex -3.414601e+000 -4.933609e+000  0.000000e+000
    endloop
  endfacet
  facet normal  2.205603e-016  3.808216e-016 -9.999999e-001
    outer loop
      vertex -3.889288e+000 -6.990954e+000 -8.881784e-016
      vertex -3.414601e+000 -4.933609e+000  0.000000e+000
      vertex -2.580112e+000 -5.416920e+000  0.000000e+000
    endloop
  endfacet
  facet normal  1.632696e-016  4.284721e-016 -1.000000e+000
    outer loop
      vertex -3.889288e+000 -6.990954e+000 -8.881784e-016
      vertex -2.580112e+000 -5.416920e+000  0.000000e+000
      vertex -1.678974e+000 -5.760299e+000  0.000000e+000
    endloop
  endfacet
  facet normal  1.630060e-016  4.289456e-016 -1.000000e+000
    outer loop
      vertex -3.889288e+000 -6.990954e+000 -8.881784e-016
      vertex -1.678974e+000 -5.760299e+000  0.000000e+000
      vertex  1.949631e+001 -1.380723e+001  0.000000e+000
    endloop
  endfacet
  facet normal  4.075151e-017 -1.072364e-016 -1.000000e+000
    outer loop
      vertex -3.889288e+000  6.990954e+000 -2.220446e-016
      vertex  1.949631e+001  1.380723e+001  0.000000e+000
      vertex -1.678974e+000  5.760299e+000  0.000000e+000
    endloop
  endfacet
  facet normal  4.081741e-017 -1.071180e-016 -1.000000e+000
    outer loop
      vertex -3.889288e+000  6.990954e+000 -2.220446e-016
      vertex -1.678974e+000  5.760299e+000  0.000000e+000
      vertex -2.580112e+000  5.416920e+000  0.000000e+000
    endloop
  endfacet
  facet normal  5.514006e-017 -9.520540e-017 -9.999999e-001
    outer loop
      vertex -3.889288e+000  6.990954e+000 -2.220446e-016
      vertex -2.580112e+000  5.416920e+000  0.000000e+000
      vertex -3.414601e+000  4.933609e+000  0.000000e+000
    endloop
  endfacet
  facet normal  7.429847e-017 -9.078503e-017 -1.000000e+000
    outer loop
      vertex -3.889288e+000  6.990954e+000 -2.220446e-016
      vertex -3.414601e+000  4.933609e+000  0.000000e+000
      vertex -4.160882e+000  4.322853e+000  0.000000e+000
    endloop
  endfacet
  facet normal  1.063612e-016 -9.404880e-017 -1.000000e+000
    outer loop
      vertex -3.889288e+000  6.990954e+000 -2.220446e-016
      vertex -4.160882e+000  4.322853e+000  0.000000e+000
      vertex -4.799679e+000  3.600427e+000  0.000000e+000
    endloop
  endfacet
  facet normal -2.499885e-016  1.634749e-018 -1.000000e+000
    outer loop
      vertex -3.889288e+000  6.990954e+000 -2.220446e-016
      vertex -4.799679e+000  3.600427e+000  0.000000e+000
      vertex -4.781281e+000  6.413997e+000  0.000000e+000
    endloop
  endfacet
  facet normal  -0.000000e+000  0.000000e+000 -1.000000e+000
    outer loop
      vertex -6.000000e+000  3.673819e-016  0.000000e+000
      vertex -5.922503e+000 -9.612253e-001  0.000000e+000
      vertex -6.298095e+000 -4.932951e+000  0.000000e+000
    endloop
  endfacet
  facet normal  0.000000e+000  0.000000e+000 -9.999999e-001
    outer loop
      vertex -6.298095e+000 -4.932951e+000  0.000000e+000
      vertex -5.922503e+000 -9.612253e-001  0.000000e+000
      vertex -5.692015e+000 -1.897620e+000  0.000000e+000
    endloop
  endfacet
  facet normal  0.000000e+000  -0.000000e+000 -1.000000e+000
    outer loop
      vertex -6.298095e+000 -4.932951e+000  0.000000e+000
      vertex -5.692015e+000 -1.897620e+000  0.000000e+000
      vertex -5.588964e+000 -5.723940e+000  0.000000e+000
    endloop
  endfacet
  facet normal  0.000000e+000  0.000000e+000 -1.000000e+000
    outer loop
      vertex -5.588964e+000 -5.723940e+000  0.000000e+000
      vertex -5.692015e+000 -1.897620e+000  0.000000e+000
      vertex -5.314490e+000 -2.784995e+000  0.000000e+000
    endloop
  endfacet
  facet normal  0.000000e+000  -0.000000e+000 -1.000000e+000
    outer loop
      vertex -5.588964e+000 -5.723940e+000  0.000000e+000
      vertex -5.314490e+000 -2.784995e+000  0.000000e+000
      vertex -4.781281e+000 -6.413997e+000  0.000000e+000
    endloop
  endfacet
  facet normal  0.000000e+000  0.000000e+000 -1.000000e+000
    outer loop
      vertex -6.000000e+000  3.673819e-016  0.000000e+000
      vertex -6.298095e+000 -4.932951e+000  0.000000e+000
      vertex -6.298095e+000  4.932951e+000  0.000000e+000
    endloop
  endfacet
  facet normal  0.000000e+000  -0.000000e+000 -9.999999e-001
    outer loop
      vertex -6.298095e+000  4.932951e+000  0.000000e+000
      vertex -6.298095e+000 -4.932951e+000  0.000000e+000
      vertex -6.896170e+000 -4.054978e+000  0.000000e+000
    endloop
  endfacet
  facet normal  0.000000e+000  0.000000e+000 -1.000000e+000
    outer loop
      vertex -6.298095e+000  4.932951e+000  0.000000e+000
      vertex -6.896170e+000 -4.054978e+000  0.000000e+000
      vertex -6.896170e+000  4.054978e+000  0.000000e+000
    endloop
  endfacet
  facet normal  0.000000e+000  -0.000000e+000 -1.000000e+000
    outer loop
      vertex -6.896170e+000  4.054978e+000  0.000000e+000
      vertex -6.896170e+000 -4.054978e+000  0.000000e+000
      vertex -7.372642e+000 -3.105503e+000  0.000000e+000
    endloop
  endfacet
  facet normal  0.000000e+000  0.000000e+000 -1.000000e+000
    outer loop
      vertex -6.896170e+000  4.054978e+000  0.000000e+000
      vertex -7.372642e+000 -3.105503e+000  0.000000e+000
      vertex -7.372642e+000  3.105503e+000  0.000000e+000
    endloop
  endfacet
  facet normal  0.000000e+000  -0.000000e+000 -1.000000e+000
    outer loop
      vertex -7.372642e+000  3.105503e+000  0.000000e+000
      vertex -7.372642e+000 -3.105503e+000  0.000000e+000
      vertex -7.719111e+000 -2.101267e+000  0.000000e+000
    endloop
  endfacet
  facet normal  0.000000e+000  0.000000e+000 -1.000000e+000
    outer loop
      vertex -7.372642e+000  3.105503e+000  0.000000e+000
      vertex -7.719111e+000 -2.101267e+000  0.000000e+000
      vertex -7.719111e+000  2.101267e+000  0.000000e+000
    endloop
  endfacet
  facet normal  0.000000e+000  -0.000000e+000 -1.000000e+000
    outer loop
      vertex -7.719111e+000  2.101267e+000  0.000000e+000
      vertex -7.719111e+000 -2.101267e+000  0.000000e+000
      vertex -7.929467e+000 -1.059979e+000  0.000000e+000
    endloop
  endfacet
  facet normal  0.000000e+000  0.000000e+000 -9.999999e-001
    outer loop
      vertex -7.719111e+000  2.101267e+000  0.000000e+000
      vertex -7.929467e+000 -1.059979e+000  0.000000e+000
      vertex -7.929467e+000  1.059979e+000  0.000000e+000
    endloop
  endfacet
  facet normal  0.000000e+000  0.000000e+000 -9.999999e-001
    outer loop
      vertex -4.799679e+000  3.600427e+000  0.000000e+000
      vertex -5.314490e+000  2.784995e+000  0.000000e+000
      vertex -4.781281e+000  6.413997e+000  0.000000e+000
    endloop
  endfacet
  facet normal  0.000000e+000  0.000000e+000 -1.000000e+000
    outer loop
      vertex -4.781281e+000  6.413997e+000  0.000000e+000
      vertex -5.314490e+000  2.784995e+000  0.000000e+000
      vertex -5.692015e+000  1.897620e+000  0.000000e+000
    endloop
  endfacet
  facet normal  0.000000e+000  0.000000e+000 -1.000000e+000
    outer loop
      vertex -4.781281e+000  6.413997e+000  0.000000e+000
      vertex -5.692015e+000  1.897620e+000  0.000000e+000
      vertex -5.588964e+000  5.723940e+000  0.000000e+000
    endloop
  endfacet
  facet normal  0.000000e+000  0.000000e+000 -1.000000e+000
    outer loop
      vertex -5.588964e+000  5.723940e+000  0.000000e+000
      vertex -5.692015e+000  1.897620e+000  0.000000e+000
      vertex -5.922503e+000  9.612253e-001  0.000000e+000
    endloop
  endfacet
  facet normal  0.000000e+000  0.000000e+000 -1.000000e+000
    outer loop
      vertex -5.588964e+000  5.723940e+000  0.000000e+000
      vertex -5.922503e+000  9.612253e-001  0.000000e+000
      vertex -6.298095e+000  4.932951e+000  0.000000e+000
    endloop
  endfacet
  facet normal  0.000000e+000  0.000000e+000  9.999999e-001
    outer loop
      vertex -4.781281e+000 -6.413997e+000  3.000000e+000
      vertex -4.799679e+000 -3.600427e+000  3.000000e+000
      vertex -5.314490e+000 -2.784995e+000  3.000000e+000
    endloop
  endfacet
  facet normal  0.000000e+000  -0.000000e+000  9.999999e-001
    outer loop
      vertex -1.678974e+000 -5.760299e+000  3.000000e+000
      vertex  1.949631e+001 -1.380723e+001  3.000000e+000
      vertex  2.000000e+001 -1.207914e+001  3.000000e+000
    endloop
  endfacet
  facet normal  0.000000e+000  -0.000000e+000  1.000000e+000
    outer loop
      vertex -6.298095e+000  4.932951e+000  3.000000e+000
      vertex -6.000000e+000  3.673819e-016  3.000000e+000
      vertex -5.922503e+000  9.612253e-001  3.000000e+000
    endloop
  endfacet
  facet normal  0.000000e+000  0.000000e+000  1.000000e+000
    outer loop
      vertex  1.949631e+001  1.380723e+001  3.000000e+000
      vertex -1.678974e+000  5.760299e+000  3.000000e+000
      vertex  2.000000e+001  1.207914e+001  3.000000e+000
    endloop
  endfacet
  facet normal  0.000000e+000  0.000000e+000  1.000000e+000
    outer loop
      vertex -6.298095e+000 -4.932951e+000  3.000000e+000
      vertex -5.588964e+000 -5.723940e+000  3.000000e+000
      vertex -5.922503e+000 -9.612253e-001  3.000000e+000
    endloop
  endfacet
  facet normal  0.000000e+000  0.000000e+000  1.000000e+000
    outer loop
      vertex -6.298095e+000 -4.932951e+000  3.000000e+000
      vertex -5.922503e+000 -9.612253e-001  3.000000e+000
      vertex -6.000000e+000  3.673819e-016  3.000000e+000
    endloop
  endfacet
  facet normal  0.000000e+000  0.000000e+000  1.000000e+000
    outer loop
      vertex -6.298095e+000 -4.932951e+000  3.000000e+000
      vertex -6.000000e+000  3.673819e-016  3.000000e+000
      vertex -6.298095e+000  4.932951e+000  3.000000e+000
    endloop
  endfacet
  facet normal  0.000000e+000  0.000000e+000  9.999999e-001
    outer loop
      vertex -6.298095e+000 -4.932951e+000  3.000000e+000
      vertex -6.298095e+000  4.932951e+000  3.000000e+000
      vertex -6.896170e+000  4.054978e+000  3.000000e+000
    endloop
  endfacet
  facet normal  0.000000e+000  0.000000e+000  1.000000e+000
    outer loop
      vertex -6.298095e+000 -4.932951e+000  3.000000e+000
      vertex -6.896170e+000  4.054978e+000  3.000000e+000
      vertex -6.896170e+000 -4.054978e+000  3.000000e+000
    endloop
  endfacet
  facet normal  0.000000e+000  0.000000e+000  1.000000e+000
    outer loop
      vertex -3.889288e+000 -6.990954e+000  3.000000e+000
      vertex  1.949631e+001 -1.380723e+001  3.000000e+000
      vertex -1.678974e+000 -5.760299e+000  3.000000e+000
    endloop
  endfacet
  facet normal  0.000000e+000  0.000000e+000  1.000000e+000
    outer loop
      vertex -3.889288e+000 -6.990954e+000  3.000000e+000
      vertex -1.678974e+000 -5.760299e+000  3.000000e+000
      vertex -2.580112e+000 -5.416920e+000  3.000000e+000
    endloop
  endfacet
  facet normal  0.000000e+000  0.000000e+000  9.999999e-001
    outer loop
      vertex -3.889288e+000 -6.990954e+000  3.000000e+000
      vertex -2.580112e+000 -5.416920e+000  3.000000e+000
      vertex -3.414601e+000 -4.933609e+000  3.000000e+000
    endloop
  endfacet
  facet normal  0.000000e+000  0.000000e+000  1.000000e+000
    outer loop
      vertex -3.889288e+000 -6.990954e+000  3.000000e+000
      vertex -3.414601e+000 -4.933609e+000  3.000000e+000
      vertex -4.160882e+000 -4.322853e+000  3.000000e+000
    endloop
  endfacet
  facet normal  0.000000e+000  0.000000e+000  1.000000e+000
    outer loop
      vertex -3.889288e+000 -6.990954e+000  3.000000e+000
      vertex -4.160882e+000 -4.322853e+000  3.000000e+000
      vertex -4.799679e+000 -3.600427e+000  3.000000e+000
    endloop
  endfacet
  facet normal  0.000000e+000  0.000000e+000  1.000000e+000
    outer loop
      vertex -3.889288e+000 -6.990954e+000  3.000000e+000
      vertex -4.799679e+000 -3.600427e+000  3.000000e+000
      vertex -4.781281e+000 -6.413997e+000  3.000000e+000
    endloop
  endfacet
  facet normal  -0.000000e+000  0.000000e+000  1.000000e+000
    outer loop
      vertex -3.889288e+000  6.990954e+000  3.000000e+000
      vertex -4.781281e+000  6.413997e+000  3.000000e+000
      vertex -4.799679e+000  3.600427e+000  3.000000e+000
    endloop
  endfacet
  facet normal  0.000000e+000  0.000000e+000  1.000000e+000
    outer loop
      vertex -3.889288e+000  6.990954e+000  3.000000e+000
      vertex -4.799679e+000  3.600427e+000  3.000000e+000
      vertex -4.160882e+000  4.322853e+000  3.000000e+000
    endloop
  endfacet
  facet normal  0.000000e+000  0.000000e+000  1.000000e+000
    outer loop
      vertex -3.889288e+000  6.990954e+000  3.000000e+000
      vertex -4.160882e+000  4.322853e+000  3.000000e+000
      vertex -3.414601e+000  4.933609e+000  3.000000e+000
    endloop
  endfacet
  facet normal  0.000000e+000  -0.000000e+000  9.999999e-001
    outer loop
      vertex -3.889288e+000  6.990954e+000  3.000000e+000
      vertex -3.414601e+000  4.933609e+000  3.000000e+000
      vertex -2.580112e+000  5.416920e+000  3.000000e+000
    endloop
  endfacet
  facet normal  0.000000e+000  -0.000000e+000  1.000000e+000
    outer loop
      vertex -3.889288e+000  6.990954e+000  3.000000e+000
      vertex -2.580112e+000  5.416920e+000  3.000000e+000
      vertex -1.678974e+000  5.760299e+000  3.000000e+000
    endloop
  endfacet
  facet normal  0.000000e+000  -0.000000e+000  1.000000e+000
    outer loop
      vertex -3.889288e+000  6.990954e+000  3.000000e+000
      vertex -1.678974e+000  5.760299e+000  3.000000e+000
      vertex  1.949631e+001  1.380723e+001  3.000000e+000
    endloop
  endfacet
  facet normal  0.000000e+000  0.000000e+000  1.000000e+000
    outer loop
      vertex -6.896170e+000 -4.054978e+000  3.000000e+000
      vertex -6.896170e+000  4.054978e+000  3.000000e+000
      vertex -7.372642e+000 -3.105503e+000  3.000000e+000
    endloop
  endfacet
  facet normal  0.000000e+000  0.000000e+000  1.000000e+000
    outer loop
      vertex -7.372642e+000 -3.105503e+000  3.000000e+000
      vertex -6.896170e+000  4.054978e+000  3.000000e+000
      vertex -7.372642e+000  3.105503e+000  3.000000e+000
    endloop
  endfacet
  facet normal  0.000000e+000  0.000000e+000  1.000000e+000
    outer loop
      vertex -7.372642e+000 -3.105503e+000  3.000000e+000
      vertex -7.372642e+000  3.105503e+000  3.000000e+000
      vertex -7.719111e+000 -2.101267e+000  3.000000e+000
    endloop
  endfacet
  facet normal  0.000000e+000  0.000000e+000  1.000000e+000
    outer loop
      vertex -7.719111e+000 -2.101267e+000  3.000000e+000
      vertex -7.372642e+000  3.105503e+000  3.000000e+000
      vertex -7.719111e+000  2.101267e+000  3.000000e+000
    endloop
  endfacet
  facet normal  0.000000e+000  0.000000e+000  1.000000e+000
    outer loop
      vertex -7.719111e+000 -2.101267e+000  3.000000e+000
      vertex -7.719111e+000  2.101267e+000  3.000000e+000
      vertex -7.929467e+000 -1.059979e+000  3.000000e+000
    endloop
  endfacet
  facet normal  0.000000e+000  0.000000e+000  9.999999e-001
    outer loop
      vertex -7.929467e+000 -1.059979e+000  3.000000e+000
      vertex -7.719111e+000  2.101267e+000  3.000000e+000
      vertex -7.929467e+000  1.059979e+000  3.000000e+000
    endloop
  endfacet
  facet normal  0.000000e+000  0.000000e+000  1.000000e+000
    outer loop
      vertex -7.929467e+000 -1.059979e+000  3.000000e+000
      vertex -7.929467e+000  1.059979e+000  3.000000e+000
      vertex -8.000000e+000  4.898425e-016  3.000000e+000
    endloop
  endfacet
  facet normal  0.000000e+000  0.000000e+000  1.000000e+000
    outer loop
      vertex -4.781281e+000 -6.413997e+000  3.000000e+000
      vertex -5.314490e+000 -2.784995e+000  3.000000e+000
      vertex -5.588964e+000 -5.723940e+000  3.000000e+000
    endloop
  endfacet
  facet normal  0.000000e+000  -0.000000e+000  1.000000e+000
    outer loop
      vertex -5.588964e+000 -5.723940e+000  3.000000e+000
      vertex -5.314490e+000 -2.784995e+000  3.000000e+000
      vertex -5.692015e+000 -1.897620e+000  3.000000e+000
    endloop
  endfacet
  facet normal  0.000000e+000  0.000000e+000  1.000000e+000
    outer loop
      vertex -5.588964e+000 -5.723940e+000  3.000000e+000
      vertex -5.692015e+000 -1.897620e+000  3.000000e+000
      vertex -5.922503e+000 -9.612253e-001  3.000000e+000
    endloop
  endfacet
  facet normal  0.000000e+000  -0.000000e+000  1.000000e+000
    outer loop
      vertex -6.298095e+000  4.932951e+000  3.000000e+000
      vertex -5.922503e+000  9.612253e-001  3.000000e+000
      vertex -5.588964e+000  5.723940e+000  3.000000e+000
    endloop
  endfacet
  facet normal  0.000000e+000  0.000000e+000  1.000000e+000
    outer loop
      vertex -5.588964e+000  5.723940e+000  3.000000e+000
      vertex -5.922503e+000  9.612253e-001  3.000000e+000
      vertex -5.692015e+000  1.897620e+000  3.000000e+000
    endloop
  endfacet
  facet normal  0.000000e+000  0.000000e+000  1.000000e+000
    outer loop
      vertex -5.588964e+000  5.723940e+000  3.000000e+000
      vertex -5.692015e+000  1.897620e+000  3.000000e+000
      vertex -4.781281e+000  6.413997e+000  3.000000e+000
    endloop
  endfacet
  facet normal  0.000000e+000  0.000000e+000  1.000000e+000
    outer loop
      vertex -4.781281e+000  6.413997e+000  3.000000e+000
      vertex -5.692015e+000  1.897620e+000  3.000000e+000
      vertex -5.314490e+000  2.784995e+000  3.000000e+000
    endloop
  endfacet
  facet normal  0.000000e+000  0.000000e+000  9.999999e-001
    outer loop
      vertex -4.781281e+000  6.413997e+000  3.000000e+000
      vertex -5.314490e+000  2.784995e+000  3.000000e+000
      vertex -4.799679e+000  3.600427e+000  3.000000e+000
    endloop
  endfacet
  facet normal -3.335979e-001 -9.427155e-001  -0.000000e+000
    outer loop
      vertex -2.238632e+000 -7.680399e+000  2.383507e-001
      vertex -2.238632e+000 -7.680399e+000  2.761649e+000
      vertex -3.090409e+000 -7.378982e+000  1.775427e-001
    endloop
  endfacet
  facet normal -3.335979e-001 -9.427155e-001  0.000000e+000
    outer loop
      vertex -3.090409e+000 -7.378982e+000  1.775427e-001
      vertex -2.238632e+000 -7.680399e+000  2.761649e+000
      vertex -3.090409e+000 -7.378982e+000  2.822457e+000
    endloop
  endfacet
  facet normal -4.369044e-001 -8.995080e-001  -0.000000e+000
    outer loop
      vertex -3.090409e+000 -7.378982e+000  1.775427e-001
      vertex -3.090409e+000 -7.378982e+000  2.822457e+000
      vertex -3.889288e+000 -6.990954e+000 -8.881784e-016
    endloop
  endfacet
  facet normal -4.369043e-001 -8.995080e-001  0.000000e+000
    outer loop
      vertex -3.889288e+000 -6.990954e+000 -8.881784e-016
      vertex -3.090409e+000 -7.378982e+000  2.822457e+000
      vertex -3.889288e+000 -6.990954e+000  3.000000e+000
    endloop
  endfacet
  facet normal -5.431091e-001 -8.396621e-001  -0.000000e+000
    outer loop
      vertex -3.889288e+000 -6.990954e+000 -8.881784e-016
      vertex -3.889288e+000 -6.990954e+000  3.000000e+000
      vertex -4.781281e+000 -6.413997e+000  0.000000e+000
    endloop
  endfacet
  facet normal -5.431091e-001 -8.396621e-001  0.000000e+000
    outer loop
      vertex -4.781281e+000 -6.413997e+000  0.000000e+000
      vertex -3.889288e+000 -6.990954e+000  3.000000e+000
      vertex -4.781281e+000 -6.413997e+000  3.000000e+000
    endloop
  endfacet
  facet normal -6.495734e-001 -7.602988e-001  -0.000000e+000
    outer loop
      vertex -4.781281e+000 -6.413997e+000  0.000000e+000
      vertex -4.781281e+000 -6.413997e+000  3.000000e+000
      vertex -5.588964e+000 -5.723940e+000  0.000000e+000
    endloop
  endfacet
  facet normal -6.495734e-001 -7.602988e-001  0.000000e+000
    outer loop
      vertex -5.588964e+000 -5.723940e+000  0.000000e+000
      vertex -4.781281e+000 -6.413997e+000  3.000000e+000
      vertex -5.588964e+000 -5.723940e+000  3.000000e+000
    endloop
  endfacet
  facet normal -7.445840e-001 -6.675287e-001  -0.000000e+000
    outer loop
      vertex -5.588964e+000 -5.723940e+000  0.000000e+000
      vertex -5.588964e+000 -5.723940e+000  3.000000e+000
      vertex -6.298095e+000 -4.932951e+000  0.000000e+000
    endloop
  endfacet
  facet normal -7.445840e-001 -6.675287e-001  0.000000e+000
    outer loop
      vertex -6.298095e+000 -4.932951e+000  0.000000e+000
      vertex -5.588964e+000 -5.723940e+000  3.000000e+000
      vertex -6.298095e+000 -4.932951e+000  3.000000e+000
    endloop
  endfacet
  facet normal -8.264652e-001 -5.629878e-001  -0.000000e+000
    outer loop
      vertex -6.298095e+000 -4.932951e+000  0.000000e+000
      vertex -6.298095e+000 -4.932951e+000  3.000000e+000
      vertex -6.896170e+000 -4.054978e+000  0.000000e+000
    endloop
  endfacet
  facet normal -8.264652e-001 -5.629878e-001  0.000000e+000
    outer loop
      vertex -6.896170e+000 -4.054978e+000  0.000000e+000
      vertex -6.298095e+000 -4.932951e+000  3.000000e+000
      vertex -6.896170e+000 -4.054978e+000  3.000000e+000
    endloop
  endfacet
  facet normal -8.937731e-001 -4.485195e-001  -0.000000e+000
    outer loop
      vertex -6.896170e+000 -4.054978e+000  0.000000e+000
      vertex -6.896170e+000 -4.054978e+000  3.000000e+000
      vertex -7.372642e+000 -3.105503e+000  0.000000e+000
    endloop
  endfacet
  facet normal -8.937731e-001 -4.485195e-001  0.000000e+000
    outer loop
      vertex -7.372642e+000 -3.105503e+000  0.000000e+000
      vertex -6.896170e+000 -4.054978e+000  3.000000e+000
      vertex -7.372642e+000 -3.105503e+000  3.000000e+000
    endloop
  endfacet
  facet normal -9.453204e-001 -3.261431e-001  -0.000000e+000
    outer loop
      vertex -7.372642e+000 -3.105503e+000  0.000000e+000
      vertex -7.372642e+000 -3.105503e+000  3.000000e+000
      vertex -7.719111e+000 -2.101267e+000  0.000000e+000
    endloop
  endfacet
  facet normal -9.453204e-001 -3.261431e-001  0.000000e+000
    outer loop
      vertex -7.719111e+000 -2.101267e+000  0.000000e+000
      vertex -7.372642e+000 -3.105503e+000  3.000000e+000
      vertex -7.719111e+000 -2.101267e+000  3.000000e+000
    endloop
  endfacet
  facet normal -9.801990e-001 -1.980144e-001  -0.000000e+000
    outer loop
      vertex -7.719111e+000 -2.101267e+000  0.000000e+000
      vertex -7.719111e+000 -2.101267e+000  3.000000e+000
      vertex -7.929467e+000 -1.059979e+000  0.000000e+000
    endloop
  endfacet
  facet normal -9.801990e-001 -1.980144e-001  0.000000e+000
    outer loop
      vertex -7.929467e+000 -1.059979e+000  0.000000e+000
      vertex -7.719111e+000 -2.101267e+000  3.000000e+000
      vertex -7.929467e+000 -1.059979e+000  3.000000e+000
    endloop
  endfacet
  facet normal -9.977934e-001 -6.639532e-002  -0.000000e+000
    outer loop
      vertex -7.929467e+000 -1.059979e+000  0.000000e+000
      vertex -7.929467e+000 -1.059979e+000  3.000000e+000
      vertex -8.000000e+000  4.042556e-015  0.000000e+000
    endloop
  endfacet
  facet normal -9.977934e-001 -6.639532e-002 -7.862786e-017
    outer loop
      vertex -8.000000e+000  4.042556e-015  0.000000e+000
      vertex -7.929467e+000 -1.059979e+000  3.000000e+000
      vertex -8.000000e+000  4.898425e-016  3.000000e+000
    endloop
  endfacet
  facet normal -9.977934e-001  6.639532e-002  7.862786e-017
    outer loop
      vertex -8.000000e+000  4.042556e-015  0.000000e+000
      vertex -8.000000e+000  4.898425e-016  3.000000e+000
      vertex -7.929467e+000  1.059979e+000  0.000000e+000
    endloop
  endfacet
  facet normal -9.977934e-001  6.639532e-002  0.000000e+000
    outer loop
      vertex -7.929467e+000  1.059979e+000  0.000000e+000
      vertex -8.000000e+000  4.898425e-016  3.000000e+000
      vertex -7.929467e+000  1.059979e+000  3.000000e+000
    endloop
  endfacet
  facet normal -9.801990e-001  1.980144e-001  0.000000e+000
    outer loop
      vertex -7.929467e+000  1.059979e+000  0.000000e+000
      vertex -7.929467e+000  1.059979e+000  3.000000e+000
      vertex -7.719111e+000  2.101267e+000  0.000000e+000
    endloop
  endfacet
  facet normal -9.801990e-001  1.980144e-001  0.000000e+000
    outer loop
      vertex -7.719111e+000  2.101267e+000  0.000000e+000
      vertex -7.929467e+000  1.059979e+000  3.000000e+000
      vertex -7.719111e+000  2.101267e+000  3.000000e+000
    endloop
  endfacet
  facet normal -9.453204e-001  3.261431e-001  0.000000e+000
    outer loop
      vertex -7.719111e+000  2.101267e+000  0.000000e+000
      vertex -7.719111e+000  2.101267e+000  3.000000e+000
      vertex -7.372642e+000  3.105503e+000  0.000000e+000
    endloop
  endfacet
  facet normal -9.453204e-001  3.261431e-001  0.000000e+000
    outer loop
      vertex -7.372642e+000  3.105503e+000  0.000000e+000
      vertex -7.719111e+000  2.101267e+000  3.000000e+000
      vertex -7.372642e+000  3.105503e+000  3.000000e+000
    endloop
  endfacet
  facet normal -8.937731e-001  4.485195e-001  0.000000e+000
    outer loop
      vertex -7.372642e+000  3.105503e+000  0.000000e+000
      vertex -7.372642e+000  3.105503e+000  3.000000e+000
      vertex -6.896170e+000  4.054978e+000  0.000000e+000
    endloop
  endfacet
  facet normal -8.937731e-001  4.485195e-001  0.000000e+000
    outer loop
      vertex -6.896170e+000  4.054978e+000  0.000000e+000
      vertex -7.372642e+000  3.105503e+000  3.000000e+000
      vertex -6.896170e+000  4.054978e+000  3.000000e+000
    endloop
  endfacet
  facet normal -8.264652e-001  5.629878e-001  0.000000e+000
    outer loop
      vertex -6.896170e+000  4.054978e+000  0.000000e+000
      vertex -6.896170e+000  4.054978e+000  3.000000e+000
      vertex -6.298095e+000  4.932951e+000  0.000000e+000
    endloop
  endfacet
  facet normal -8.264652e-001  5.629878e-001  0.000000e+000
    outer loop
      vertex -6.298095e+000  4.932951e+000  0.000000e+000
      vertex -6.896170e+000  4.054978e+000  3.000000e+000
      vertex -6.298095e+000  4.932951e+000  3.000000e+000
    endloop
  endfacet
  facet normal -7.445840e-001  6.675287e-001  0.000000e+000
    outer loop
      vertex -6.298095e+000  4.932951e+000  0.000000e+000
      vertex -6.298095e+000  4.932951e+000  3.000000e+000
      vertex -5.588964e+000  5.723940e+000  0.000000e+000
    endloop
  endfacet
  facet normal -7.445840e-001  6.675287e-001  0.000000e+000
    outer loop
      vertex -5.588964e+000  5.723940e+000  0.000000e+000
      vertex -6.298095e+000  4.932951e+000  3.000000e+000
      vertex -5.588964e+000  5.723940e+000  3.000000e+000
    endloop
  endfacet
  facet normal -6.495734e-001  7.602988e-001  0.000000e+000
    outer loop
      vertex -5.588964e+000  5.723940e+000  0.000000e+000
      vertex -5.588964e+000  5.723940e+000  3.000000e+000
      vertex -4.781281e+000  6.413997e+000  0.000000e+000
    endloop
  endfacet
  facet normal -6.495734e-001  7.602988e-001  0.000000e+000
    outer loop
      vertex -4.781281e+000  6.413997e+000  0.000000e+000
      vertex -5.588964e+000  5.723940e+000  3.000000e+000
      vertex -4.781281e+000  6.413997e+000  3.000000e+000
    endloop
  endfacet
  facet normal -5.431091e-001  8.396621e-001  0.000000e+000
    outer loop
      vertex -4.781281e+000  6.413997e+000  0.000000e+000
      vertex -4.781281e+000  6.413997e+000  3.000000e+000
      vertex -3.889288e+000  6.990954e+000 -2.220446e-016
    endloop
  endfacet
  facet normal -5.431091e-001  8.396621e-001  0.000000e+000
    outer loop
      vertex -3.889288e+000  6.990954e+000 -2.220446e-016
      vertex -4.781281e+000  6.413997e+000  3.000000e+000
      vertex -3.889288e+000  6.990954e+000  3.000000e+000
    endloop
  endfacet
  facet normal -4.369043e-001  8.995080e-001  0.000000e+000
    outer loop
      vertex -3.889288e+000  6.990954e+000 -2.220446e-016
      vertex -3.889288e+000  6.990954e+000  3.000000e+000
      vertex -3.090409e+000  7.378982e+000  1.775427e-001
    endloop
  endfacet
  facet normal -4.369044e-001  8.995080e-001  0.000000e+000
    outer loop
      vertex -3.090409e+000  7.378982e+000  1.775427e-001
      vertex -3.889288e+000  6.990954e+000  3.000000e+000
      vertex -3.090409e+000  7.378982e+000  2.822457e+000
    endloop
  endfacet
  facet normal -3.335979e-001  9.427155e-001  0.000000e+000
    outer loop
      vertex -3.090409e+000  7.378982e+000  1.775427e-001
      vertex -3.090409e+000  7.378982e+000  2.822457e+000
      vertex -2.238632e+000  7.680399e+000  2.383507e-001
    endloop
  endfacet
  facet normal -3.335979e-001  9.427155e-001  0.000000e+000
    outer loop
      vertex -2.238632e+000  7.680399e+000  2.383507e-001
      vertex -3.090409e+000  7.378982e+000  2.822457e+000
      vertex -2.238632e+000  7.680399e+000  2.761649e+000
    endloop
  endfacet
  facet normal  9.600499e-001 -2.798291e-001  1.582838e-006
    outer loop
      vertex  1.944034e+001 -1.399924e+001  2.761649e+000
      vertex  2.000000e+001 -1.207914e+001  3.000000e+000
      vertex  1.949631e+001 -1.380723e+001  3.000000e+000
    endloop
  endfacet
  facet normal  9.600499e-001 -2.798290e-001  0.000000e+000
    outer loop
      vertex  2.000000e+001 -1.207914e+001  3.000000e+000
      vertex  1.944034e+001 -1.399924e+001  2.761649e+000
      vertex  2.000000e+001 -1.207914e+001  0.000000e+000
    endloop
  endfacet
  facet normal  9.600499e-001 -2.798289e-001  0.000000e+000
    outer loop
      vertex  2.000000e+001 -1.207914e+001  0.000000e+000
      vertex  1.944034e+001 -1.399924e+001  2.761649e+000
      vertex  1.944034e+001 -1.399924e+001  2.383507e-001
    endloop
  endfacet
  facet normal  9.600498e-001 -2.798291e-001 -1.582837e-006
    outer loop
      vertex  2.000000e+001 -1.207914e+001  0.000000e+000
      vertex  1.944034e+001 -1.399924e+001  2.383507e-001
      vertex  1.949631e+001 -1.380723e+001  0.000000e+000
    endloop
  endfacet
  facet normal -2.798288e-001 -9.600499e-001  0.000000e+000
    outer loop
      vertex  1.848029e+001 -1.371941e+001  2.761649e+000
      vertex  1.848029e+001 -1.371941e+001  2.383507e-001
      vertex  1.944034e+001 -1.399924e+001  2.761649e+000
    endloop
  endfacet
  facet normal -2.798288e-001 -9.600499e-001  -0.000000e+000
    outer loop
      vertex  1.944034e+001 -1.399924e+001  2.761649e+000
      vertex  1.848029e+001 -1.371941e+001  2.383507e-001
      vertex  1.944034e+001 -1.399924e+001  2.383507e-001
    endloop
  endfacet
  facet normal  2.798290e-001  9.600499e-001  -0.000000e+000
    outer loop
      vertex  2.000000e+001 -1.207914e+001  3.000000e+000
      vertex  2.000000e+001 -1.207914e+001  0.000000e+000
      vertex -1.678974e+000 -5.760299e+000  3.000000e+000
    endloop
  endfacet
  facet normal  2.798290e-001  9.600499e-001  0.000000e+000
    outer loop
      vertex -1.678974e+000 -5.760299e+000  3.000000e+000
      vertex  2.000000e+001 -1.207914e+001  0.000000e+000
      vertex -1.678974e+000 -5.760299e+000  0.000000e+000
    endloop
  endfacet
  facet normal  9.967658e-001  8.036190e-002  0.000000e+000
    outer loop
      vertex -6.000000e+000  3.673819e-016  0.000000e+000
      vertex -5.922503e+000 -9.612253e-001  3.000000e+000
      vertex -5.922503e+000 -9.612253e-001  0.000000e+000
    endloop
  endfacet
  facet normal  9.710171e-001  2.390104e-001  -0.000000e+000
    outer loop
      vertex -5.922503e+000 -9.612253e-001  0.000000e+000
      vertex -5.922503e+000 -9.612253e-001  3.000000e+000
      vertex -5.692015e+000 -1.897620e+000  3.000000e+000
    endloop
  endfacet
  facet normal  9.710171e-001  2.390104e-001  0.000000e+000
    outer loop
      vertex -5.922503e+000 -9.612253e-001  0.000000e+000
      vertex -5.692015e+000 -1.897620e+000  3.000000e+000
      vertex -5.692015e+000 -1.897620e+000  0.000000e+000
    endloop
  endfacet
  facet normal  9.201849e-001  3.914840e-001  -0.000000e+000
    outer loop
      vertex -5.692015e+000 -1.897620e+000  0.000000e+000
      vertex -5.692015e+000 -1.897620e+000  3.000000e+000
      vertex -5.314490e+000 -2.784995e+000  3.000000e+000
    endloop
  endfacet
  facet normal  9.201849e-001  3.914840e-001  0.000000e+000
    outer loop
      vertex -5.692015e+000 -1.897620e+000  0.000000e+000
      vertex -5.314490e+000 -2.784995e+000  3.000000e+000
      vertex -5.314490e+000 -2.784995e+000  0.000000e+000
    endloop
  endfacet
  facet normal  8.455822e-001  5.338452e-001  -0.000000e+000
    outer loop
      vertex -5.314490e+000 -2.784995e+000  0.000000e+000
      vertex -5.314490e+000 -2.784995e+000  3.000000e+000
      vertex -4.799679e+000 -3.600427e+000  3.000000e+000
    endloop
  endfacet
  facet normal  8.455822e-001  5.338452e-001  0.000000e+000
    outer loop
      vertex -5.314490e+000 -2.784995e+000  0.000000e+000
      vertex -4.799679e+000 -3.600427e+000  3.000000e+000
      vertex -4.799679e+000 -3.600427e+000  0.000000e+000
    endloop
  endfacet
  facet normal  7.491364e-001  6.624159e-001  -0.000000e+000
    outer loop
      vertex -4.799679e+000 -3.600427e+000  0.000000e+000
      vertex -4.799679e+000 -3.600427e+000  3.000000e+000
      vertex -4.160882e+000 -4.322853e+000  3.000000e+000
    endloop
  endfacet
  facet normal  7.491364e-001  6.624159e-001  0.000000e+000
    outer loop
      vertex -4.799679e+000 -3.600427e+000  0.000000e+000
      vertex -4.160882e+000 -4.322853e+000  3.000000e+000
      vertex -4.160882e+000 -4.322853e+000  0.000000e+000
    endloop
  endfacet
  facet normal  6.333389e-001  7.738745e-001  -0.000000e+000
    outer loop
      vertex -4.160882e+000 -4.322853e+000  0.000000e+000
      vertex -4.160882e+000 -4.322853e+000  3.000000e+000
      vertex -3.414601e+000 -4.933609e+000  3.000000e+000
    endloop
  endfacet
  facet normal  6.333389e-001  7.738745e-001  0.000000e+000
    outer loop
      vertex -4.160882e+000 -4.322853e+000  0.000000e+000
      vertex -3.414601e+000 -4.933609e+000  3.000000e+000
      vertex -3.414601e+000 -4.933609e+000  0.000000e+000
    endloop
  endfacet
  facet normal  5.011803e-001  8.653430e-001  -0.000000e+000
    outer loop
      vertex -3.414601e+000 -4.933609e+000  0.000000e+000
      vertex -3.414601e+000 -4.933609e+000  3.000000e+000
      vertex -2.580112e+000 -5.416920e+000  3.000000e+000
    endloop
  endfacet
  facet normal  5.011803e-001  8.653430e-001  0.000000e+000
    outer loop
      vertex -3.414601e+000 -4.933609e+000  0.000000e+000
      vertex -2.580112e+000 -5.416920e+000  3.000000e+000
      vertex -2.580112e+000 -5.416920e+000  0.000000e+000
    endloop
  endfacet
  facet normal  3.560756e-001  9.344572e-001  -0.000000e+000
    outer loop
      vertex -2.580112e+000 -5.416920e+000  0.000000e+000
      vertex -2.580112e+000 -5.416920e+000  3.000000e+000
      vertex -1.678974e+000 -5.760299e+000  3.000000e+000
    endloop
  endfacet
  facet normal  3.560756e-001  9.344572e-001  0.000000e+000
    outer loop
      vertex -2.580112e+000 -5.416920e+000  0.000000e+000
      vertex -1.678974e+000 -5.760299e+000  3.000000e+000
      vertex -1.678974e+000 -5.760299e+000  0.000000e+000
    endloop
  endfacet
  facet normal  9.967658e-001  8.036190e-002  -0.000000e+000
    outer loop
      vertex -5.922503e+000 -9.612253e-001  3.000000e+000
      vertex -6.000000e+000  3.673819e-016  0.000000e+000
      vertex -6.000000e+000  3.673819e-016  3.000000e+000
    endloop
  endfacet
  facet normal  9.967658e-001 -8.036190e-002  0.000000e+000
    outer loop
      vertex -6.000000e+000  3.673819e-016  3.000000e+000
      vertex -6.000000e+000  3.673819e-016  0.000000e+000
      vertex -5.922503e+000  9.612253e-001  0.000000e+000
    endloop
  endfacet
  facet normal  9.967658e-001 -8.036190e-002  0.000000e+000
    outer loop
      vertex -6.000000e+000  3.673819e-016  3.000000e+000
      vertex -5.922503e+000  9.612253e-001  0.000000e+000
      vertex -5.922503e+000  9.612253e-001  3.000000e+000
    endloop
  endfacet
  facet normal  9.710171e-001 -2.390104e-001  0.000000e+000
    outer loop
      vertex -5.922503e+000  9.612253e-001  3.000000e+000
      vertex -5.922503e+000  9.612253e-001  0.000000e+000
      vertex -5.692015e+000  1.897620e+000  0.000000e+000
    endloop
  endfacet
  facet normal  9.710171e-001 -2.390104e-001  0.000000e+000
    outer loop
      vertex -5.922503e+000  9.612253e-001  3.000000e+000
      vertex -5.692015e+000  1.897620e+000  0.000000e+000
      vertex -5.692015e+000  1.897620e+000  3.000000e+000
    endloop
  endfacet
  facet normal  9.201849e-001 -3.914840e-001  0.000000e+000
    outer loop
      vertex -5.692015e+000  1.897620e+000  3.000000e+000
      vertex -5.692015e+000  1.897620e+000  0.000000e+000
      vertex -5.314490e+000  2.784995e+000  0.000000e+000
    endloop
  endfacet
  facet normal  9.201849e-001 -3.914840e-001  0.000000e+000
    outer loop
      vertex -5.692015e+000  1.897620e+000  3.000000e+000
      vertex -5.314490e+000  2.784995e+000  0.000000e+000
      vertex -5.314490e+000  2.784995e+000  3.000000e+000
    endloop
  endfacet
  facet normal  8.455822e-001 -5.338452e-001  0.000000e+000
    outer loop
      vertex -5.314490e+000  2.784995e+000  3.000000e+000
      vertex -5.314490e+000  2.784995e+000  0.000000e+000
      vertex -4.799679e+000  3.600427e+000  0.000000e+000
    endloop
  endfacet
  facet normal  8.455822e-001 -5.338452e-001  0.000000e+000
    outer loop
      vertex -5.314490e+000  2.784995e+000  3.000000e+000
      vertex -4.799679e+000  3.600427e+000  0.000000e+000
      vertex -4.799679e+000  3.600427e+000  3.000000e+000
    endloop
  endfacet
  facet normal  7.491364e-001 -6.624159e-001  0.000000e+000
    outer loop
      vertex -4.799679e+000  3.600427e+000  3.000000e+000
      vertex -4.799679e+000  3.600427e+000  0.000000e+000
      vertex -4.160882e+000  4.322853e+000  0.000000e+000
    endloop
  endfacet
  facet normal  7.491364e-001 -6.624159e-001  0.000000e+000
    outer loop
      vertex -4.799679e+000  3.600427e+000  3.000000e+000
      vertex -4.160882e+000  4.322853e+000  0.000000e+000
      vertex -4.160882e+000  4.322853e+000  3.000000e+000
    endloop
  endfacet
  facet normal  6.333389e-001 -7.738745e-001  0.000000e+000
    outer loop
      vertex -4.160882e+000  4.322853e+000  3.000000e+000
      vertex -4.160882e+000  4.322853e+000  0.000000e+000
      vertex -3.414601e+000  4.933609e+000  0.000000e+000
    endloop
  endfacet
  facet normal  6.333389e-001 -7.738745e-001  0.000000e+000
    outer loop
      vertex -4.160882e+000  4.322853e+000  3.000000e+000
      vertex -3.414601e+000  4.933609e+000  0.000000e+000
      vertex -3.414601e+000  4.933609e+000  3.000000e+000
    endloop
  endfacet
  facet normal  5.011803e-001 -8.653430e-001  0.000000e+000
    outer loop
      vertex -3.414601e+000  4.933609e+000  3.000000e+000
      vertex -3.414601e+000  4.933609e+000  0.000000e+000
      vertex -2.580112e+000  5.416920e+000  0.000000e+000
    endloop
  endfacet
  facet normal  5.011803e-001 -8.653430e-001  0.000000e+000
    outer loop
      vertex -3.414601e+000  4.933609e+000  3.000000e+000
      vertex -2.580112e+000  5.416920e+000  0.000000e+000
      vertex -2.580112e+000  5.416920e+000  3.000000e+000
    endloop
  endfacet
  facet normal  3.560756e-001 -9.344572e-001  0.000000e+000
    outer loop
      vertex -2.580112e+000  5.416920e+000  3.000000e+000
      vertex -2.580112e+000  5.416920e+000  0.000000e+000
      vertex -1.678974e+000  5.760299e+000  0.000000e+000
    endloop
  endfacet
  facet normal  3.560756e-001 -9.344572e-001  0.000000e+000
    outer loop
      vertex -2.580112e+000  5.416920e+000  3.000000e+000
      vertex -1.678974e+000  5.760299e+000  0.000000e+000
      vertex -1.678974e+000  5.760299e+000  3.000000e+000
    endloop
  endfacet
  facet normal  9.600499e-001  2.798291e-001  1.582838e-006
    outer loop
      vertex  1.949631e+001  1.380723e+001  3.000000e+000
      vertex  2.000000e+001  1.207914e+001  3.000000e+000
      vertex  1.944034e+001  1.399924e+001  2.761649e+000
    endloop
  endfacet
  facet normal  9.600498e-001  2.798291e-001 -1.582837e-006
    outer loop
      vertex  1.949631e+001  1.380723e+001  0.000000e+000
      vertex  1.944034e+001  1.399924e+001  2.383507e-001
      vertex  2.000000e+001  1.207914e+001  0.000000e+000
    endloop
  endfacet
  facet normal  9.600499e-001  2.798289e-001  0.000000e+000
    outer loop
      vertex  2.000000e+001  1.207914e+001  0.000000e+000
      vertex  1.944034e+001  1.399924e+001  2.383507e-001
      vertex  1.944034e+001  1.399924e+001  2.761649e+000
    endloop
  endfacet
  facet normal  9.600499e-001  2.798290e-001  0.000000e+000
    outer loop
      vertex  2.000000e+001  1.207914e+001  0.000000e+000
      vertex  1.944034e+001  1.399924e+001  2.761649e+000
      vertex  2.000000e+001  1.207914e+001  3.000000e+000
    endloop
  endfacet
  facet normal -2.798288e-001  9.600499e-001  0.000000e+000
    outer loop
      vertex  1.848029e+001  1.371941e+001  2.761649e+000
      vertex  1.944034e+001  1.399924e+001  2.761649e+000
      vertex  1.848029e+001  1.371941e+001  2.383507e-001
    endloop
  endfacet
  facet normal -2.798288e-001  9.600499e-001  0.000000e+000
    outer loop
      vertex  1.848029e+001  1.371941e+001  2.383507e-001
      vertex  1.944034e+001  1.399924e+001  2.761649e+000
      vertex  1.944034e+001  1.399924e+001  2.383507e-001
    endloop
  endfacet
  facet normal  2.798290e-001 -9.600499e-001  0.000000e+000
    outer loop
      vertex -1.678974e+000  5.760299e+000  3.000000e+000
      vertex -1.678974e+000  5.760299e+000  0.000000e+000
      vertex  2.000000e+001  1.207914e+001  3.000000e+000
    endloop
  endfacet
  facet normal  2.798290e-001 -9.600499e-001  0.000000e+000
    outer loop
      vertex  2.000000e+001  1.207914e+001  3.000000e+000
      vertex -1.678974e+000  5.760299e+000  0.000000e+000
      vertex  2.000000e+001  1.207914e+001  0.000000e+000
    endloop
  endfacet
endsolid CATIA STL
